<svg height="590" width="1030" xmlns="http://www.w3.org/2000/svg"><circle cx="0" cy="0" fill="yellow" r="50" stroke="black"></circle><g transform="translate(60,40)"><text dx="-.2em" dy=".32em" text-anchor="end" x="0" y="500.0">0.0</text><text dx="-.2em" dy=".32em" text-anchor="end" x="0" y="450.0">10.0</text><text dx="-.2em" dy=".32em" text-anchor="end" x="0" y="400.0">20.0</text><text dx="-.2em" dy=".32em" text-anchor="end" x="0" y="350.0">30.0</text><text dx="-.2em" dy=".32em" text-anchor="end" x="0" y="300.0">40.0</text><text dx="-.2em" dy=".32em" text-anchor="end" x="0" y="250.0">50.0</text><text dx="-.2em" dy=".32em" text-anchor="end" x="0" y="200.0">60.0</text><text dx="-.2em" dy=".32em" text-anchor="end" x="0" y="150.0">70.0</text><text dx="-.2em" dy=".32em" text-anchor="end" x="0" y="100.0">80.0</text><text dx="-.2em" dy=".32em" text-anchor="end" x="0" y="50.0">90.0</text><text dx="-.2em" dy=".32em" text-anchor="end" x="0" y="0.0">100.0</text><rect fill="none" height="500" stroke="red" width="960" x="0" y="0"></rect><circle cx="50" cy="100" fill="yellow" r="10" stroke="black"></circle><circle cx="240" cy="375" fill="yellow" r="25" stroke-width="5" stroke="black"></circle><circle cx="480" cy="250" fill="cyan" r="25" stroke-width="5" stroke="black"></circle><circle cx="720" cy="375" fill="red" r="25" stroke-width="5" stroke="black"></circle><circle cx="50" cy="100" fill="yellow" r="1" stroke="black"></circle><line stroke="red" x1="50" x2="960" y1="100" y2="100"></line><text dy=".32em" font-size="200px" x="50" y="100">1,23456789</text><line stroke="blue" x1="0" x2="960" y1="0" y2="500"></line><line stroke="blue" x1="960" x2="0" y1="0" y2="500"></line></g></svg>