<svg height="600" width="600" xmlns="http://www.w3.org/2000/svg"><circle cx="0" cy="0" fill="yellow" r="50" stroke="black"></circle><circle cx="600" cy="0" fill="yellow" r="50" stroke="black"></circle><circle cx="600" cy="600" fill="yellow" r="50" stroke="black"></circle><circle cx="0" cy="600" fill="yellow" r="50" stroke="black"></circle><g transform="translate(60,50)"><text dx="-.2em" dy=".32em" text-anchor="end" x="0" y="500.0">0.0</text><text dx="-.2em" dy=".32em" text-anchor="end" x="0" y="450.0">10.0</text><text dx="-.2em" dy=".32em" text-anchor="end" x="0" y="400.0">20.0</text><text dx="-.2em" dy=".32em" text-anchor="end" x="0" y="350.0">30.0</text><text dx="-.2em" dy=".32em" text-anchor="end" x="0" y="300.0">40.0</text><text dx="-.2em" dy=".32em" text-anchor="end" x="0" y="250.0">50.0</text><text dx="-.2em" dy=".32em" text-anchor="end" x="0" y="200.0">60.0</text><text dx="-.2em" dy=".32em" text-anchor="end" x="0" y="150.0">70.0</text><text dx="-.2em" dy=".32em" text-anchor="end" x="0" y="100.0">80.0</text><text dx="-.2em" dy=".32em" text-anchor="end" x="0" y="50.0">90.0</text><text dx="-.2em" dy=".32em" text-anchor="end" x="0" y="0.0">100.0</text><g transform="translate(500,0)"><text dx=".2em" dy=".32em" text-anchor="start" x="0" y="500.0">0.0</text><text dx=".2em" dy=".32em" text-anchor="start" x="0" y="450.0">10.0</text><text dx=".2em" dy=".32em" text-anchor="start" x="0" y="400.0">20.0</text><text dx=".2em" dy=".32em" text-anchor="start" x="0" y="350.0">30.0</text><text dx=".2em" dy=".32em" text-anchor="start" x="0" y="300.0">40.0</text><text dx=".2em" dy=".32em" text-anchor="start" x="0" y="250.0">50.0</text><text dx=".2em" dy=".32em" text-anchor="start" x="0" y="200.0">60.0</text><text dx=".2em" dy=".32em" text-anchor="start" x="0" y="150.0">70.0</text><text dx=".2em" dy=".32em" text-anchor="start" x="0" y="100.0">80.0</text><text dx=".2em" dy=".32em" text-anchor="start" x="0" y="50.0">90.0</text><text dx=".2em" dy=".32em" text-anchor="start" x="0" y="0.0">100.0</text></g><rect fill="none" height="500" stroke="black" width="500" x="0" y="0"></rect><circle cx="50" cy="100" fill="yellow" r="10" stroke="black"></circle><circle cx="125" cy="375" fill="yellow" r="25" stroke-width="5" stroke="black"></circle><circle cx="250" cy="250" fill="cyan" r="25" stroke-width="5" stroke="black"></circle><circle cx="375" cy="375" fill="red" r="25" stroke-width="5" stroke="black"></circle><circle cx="50" cy="100" fill="yellow" r="1" stroke="black"></circle><line stroke="red" x1="50" x2="500" y1="100" y2="100"></line><text dy=".32em" font-size="200px" x="50" y="100">1,234</text><line stroke="blue" x1="0" x2="500" y1="0" y2="500"></line><line stroke="blue" x1="500" x2="0" y1="0" y2="500"></line></g></svg>