<svg height="240" width="320" xmlns="http://www.w3.org/2000/svg"><rect fill-opacity="0.2" fill="steelblue" height="100%" width="100%"></rect><g transform="translate(32.0,21.0)"><circle fill="yellow" r="7" stroke-width="3" stroke="black"></circle><circle fill="yellow" r="7" stroke-width="3" stroke="black" transform="translate(0,198.0)"></circle><g transform="translate(256.0,0)"><circle fill="yellow" r="7" stroke-width="3" stroke="black"></circle><circle fill="yellow" r="7" stroke-width="3" stroke="black" transform="translate(0,198.0)"></circle></g><g><g><path d="M-6,198.5 H0.5 V0.5 H-6" fill="none" stroke-width="1" stroke="#000"></path><g transform="translate(0,198.0)"><line stroke="#000" x2="-6" y1="0.5" y2="0.5"></line><g><path d="M-9-0.78L-9 0.73L-9 0.73Q-9 1.96-9.22 2.80L-9.22 2.80L-9.22 2.80Q-9.44 3.63-9.84 4.15L-9.84 4.15L-9.84 4.15Q-10.25 4.67-10.83 4.89L-10.83 4.89L-10.83 4.89Q-11.41 5.12-12.13 5.12L-12.13 5.12L-12.13 5.12Q-12.85 5.12-13.43 4.89L-13.43 4.89L-13.43 4.89Q-14.01 4.67-14.42 4.15L-14.42 4.15L-14.42 4.15Q-14.83 3.63-15.06 2.80L-15.06 2.80L-15.06 2.80Q-15.28 1.96-15.28 0.73L-15.28 0.73L-15.28-0.78L-15.28-0.78Q-15.28-2.01-15.06-2.83L-15.06-2.83L-15.06-2.83Q-14.84-3.66-14.43-4.17L-14.43-4.17L-14.43-4.17Q-14.02-4.67-13.44-4.89L-13.44-4.89L-13.44-4.89Q-12.86-5.11-12.14-5.11L-12.14-5.11L-12.14-5.11Q-11.42-5.11-10.84-4.89L-10.84-4.89L-10.84-4.89Q-10.26-4.67-9.85-4.17L-9.85-4.17L-9.85-4.17Q-9.44-3.66-9.22-2.83L-9.22-2.83L-9.22-2.83Q-9-2.01-9-0.78L-9-0.78M-10.26 0.93L-10.26-0.99L-10.26-0.99Q-10.26-1.84-10.38-2.42L-10.38-2.42L-10.38-2.42Q-10.50-3.01-10.74-3.38L-10.74-3.38L-10.74-3.38Q-10.98-3.74-11.33-3.91L-11.33-3.91L-11.33-3.91Q-11.69-4.07-12.14-4.07L-12.14-4.07L-12.14-4.07Q-12.60-4.07-12.95-3.91L-12.95-3.91L-12.95-3.91Q-13.30-3.74-13.54-3.38L-13.54-3.38L-13.54-3.38Q-13.77-3.01-13.89-2.42L-13.89-2.42L-13.89-2.42Q-14.02-1.84-14.02-0.99L-14.02-0.99L-14.02 0.93L-14.02 0.93Q-14.02 1.77-13.89 2.37L-13.89 2.37L-13.89 2.37Q-13.77 2.96-13.53 3.35L-13.53 3.35L-13.53 3.35Q-13.29 3.73-12.93 3.91L-12.93 3.91L-12.93 3.91Q-12.58 4.08-12.13 4.08L-12.13 4.08L-12.13 4.08Q-11.67 4.08-11.32 3.91L-11.32 3.91L-11.32 3.91Q-10.97 3.73-10.73 3.35L-10.73 3.35L-10.73 3.35Q-10.50 2.96-10.38 2.37L-10.38 2.37L-10.38 2.37Q-10.26 1.77-10.26 0.93L-10.26 0.93Z" fill="#000" stroke="none"></path></g></g><g transform="translate(0,158.4)"><line stroke="#000" x2="-6" y1="0.5" y2="0.5"></line><g><path d="M-16.58 3.95L-16.58 4.98L-23.10 4.98L-23.10 4.07L-19.84 0.45L-19.84 0.45Q-19.39-0.05-19.09-0.43L-19.09-0.43L-19.09-0.43Q-18.80-0.82-18.62-1.13L-18.62-1.13L-18.62-1.13Q-18.45-1.45-18.38-1.73L-18.38-1.73L-18.38-1.73Q-18.31-2.01-18.31-2.29L-18.31-2.29L-18.31-2.29Q-18.31-2.66-18.43-2.99L-18.43-2.99L-18.43-2.99Q-18.54-3.31-18.76-3.55L-18.76-3.55L-18.76-3.55Q-18.98-3.79-19.30-3.93L-19.30-3.93L-19.30-3.93Q-19.62-4.07-20.04-4.07L-20.04-4.07L-20.04-4.07Q-20.55-4.07-20.92-3.92L-20.92-3.92L-20.92-3.92Q-21.29-3.77-21.54-3.50L-21.54-3.50L-21.54-3.50Q-21.78-3.24-21.91-2.86L-21.91-2.86L-21.91-2.86Q-22.03-2.49-22.03-2.04L-22.03-2.04L-23.29-2.04L-23.29-2.04Q-23.29-2.67-23.09-3.23L-23.09-3.23L-23.09-3.23Q-22.88-3.79-22.47-4.21L-22.47-4.21L-22.47-4.21Q-22.06-4.62-21.45-4.87L-21.45-4.87L-21.45-4.87Q-20.84-5.11-20.04-5.11L-20.04-5.11L-20.04-5.11Q-19.34-5.11-18.78-4.92L-18.78-4.92L-18.78-4.92Q-18.22-4.73-17.84-4.37L-17.84-4.37L-17.84-4.37Q-17.45-4.02-17.24-3.53L-17.24-3.53L-17.24-3.53Q-17.04-3.04-17.04-2.44L-17.04-2.44L-17.04-2.44Q-17.04-2.01-17.19-1.56L-17.19-1.56L-17.19-1.56Q-17.34-1.12-17.59-0.68L-17.59-0.68L-17.59-0.68Q-17.85-0.24-18.19 0.20L-18.19 0.20L-18.19 0.20Q-18.53 0.63-18.91 1.05L-18.91 1.05L-21.58 3.95L-16.58 3.95ZM-9-0.78L-9 0.73L-9 0.73Q-9 1.96-9.22 2.80L-9.22 2.80L-9.22 2.80Q-9.44 3.63-9.84 4.15L-9.84 4.15L-9.84 4.15Q-10.25 4.67-10.83 4.89L-10.83 4.89L-10.83 4.89Q-11.41 5.12-12.13 5.12L-12.13 5.12L-12.13 5.12Q-12.85 5.12-13.43 4.89L-13.43 4.89L-13.43 4.89Q-14.01 4.67-14.42 4.15L-14.42 4.15L-14.42 4.15Q-14.83 3.63-15.06 2.80L-15.06 2.80L-15.06 2.80Q-15.28 1.96-15.28 0.73L-15.28 0.73L-15.28-0.78L-15.28-0.78Q-15.28-2.01-15.06-2.83L-15.06-2.83L-15.06-2.83Q-14.84-3.66-14.43-4.17L-14.43-4.17L-14.43-4.17Q-14.02-4.67-13.44-4.89L-13.44-4.89L-13.44-4.89Q-12.86-5.11-12.14-5.11L-12.14-5.11L-12.14-5.11Q-11.42-5.11-10.84-4.89L-10.84-4.89L-10.84-4.89Q-10.26-4.67-9.85-4.17L-9.85-4.17L-9.85-4.17Q-9.44-3.66-9.22-2.83L-9.22-2.83L-9.22-2.83Q-9-2.01-9-0.78L-9-0.78M-10.26 0.93L-10.26-0.99L-10.26-0.99Q-10.26-1.84-10.38-2.42L-10.38-2.42L-10.38-2.42Q-10.50-3.01-10.74-3.38L-10.74-3.38L-10.74-3.38Q-10.98-3.74-11.33-3.91L-11.33-3.91L-11.33-3.91Q-11.69-4.07-12.14-4.07L-12.14-4.07L-12.14-4.07Q-12.60-4.07-12.95-3.91L-12.95-3.91L-12.95-3.91Q-13.30-3.74-13.54-3.38L-13.54-3.38L-13.54-3.38Q-13.77-3.01-13.89-2.42L-13.89-2.42L-13.89-2.42Q-14.02-1.84-14.02-0.99L-14.02-0.99L-14.02 0.93L-14.02 0.93Q-14.02 1.77-13.89 2.37L-13.89 2.37L-13.89 2.37Q-13.77 2.96-13.53 3.35L-13.53 3.35L-13.53 3.35Q-13.29 3.73-12.93 3.91L-12.93 3.91L-12.93 3.91Q-12.58 4.08-12.13 4.08L-12.13 4.08L-12.13 4.08Q-11.67 4.08-11.32 3.91L-11.32 3.91L-11.32 3.91Q-10.97 3.73-10.73 3.35L-10.73 3.35L-10.73 3.35Q-10.50 2.96-10.38 2.37L-10.38 2.37L-10.38 2.37Q-10.26 1.77-10.26 0.93L-10.26 0.93Z" fill="#000" stroke="none"></path></g></g><g transform="translate(0,118.8)"><line stroke="#000" x2="-6" y1="0.5" y2="0.5"></line><g><path d="M-17.76-4.97L-17.76 1.64L-16.38 1.64L-16.38 2.67L-17.76 2.67L-17.76 4.98L-19.04 4.98L-19.04 2.67L-23.57 2.67L-23.57 1.92L-19.11-4.97L-17.76-4.97M-19.19-2.97L-22.13 1.64L-19.04 1.64L-19.04-3.24L-19.19-2.97ZM-9-0.78L-9 0.73L-9 0.73Q-9 1.96-9.22 2.80L-9.22 2.80L-9.22 2.80Q-9.44 3.63-9.84 4.15L-9.84 4.15L-9.84 4.15Q-10.25 4.67-10.83 4.89L-10.83 4.89L-10.83 4.89Q-11.41 5.12-12.13 5.12L-12.13 5.12L-12.13 5.12Q-12.85 5.12-13.43 4.89L-13.43 4.89L-13.43 4.89Q-14.01 4.67-14.42 4.15L-14.42 4.15L-14.42 4.15Q-14.83 3.63-15.06 2.80L-15.06 2.80L-15.06 2.80Q-15.28 1.96-15.28 0.73L-15.28 0.73L-15.28-0.78L-15.28-0.78Q-15.28-2.01-15.06-2.83L-15.06-2.83L-15.06-2.83Q-14.84-3.66-14.43-4.17L-14.43-4.17L-14.43-4.17Q-14.02-4.67-13.44-4.89L-13.44-4.89L-13.44-4.89Q-12.86-5.11-12.14-5.11L-12.14-5.11L-12.14-5.11Q-11.42-5.11-10.84-4.89L-10.84-4.89L-10.84-4.89Q-10.26-4.67-9.85-4.17L-9.85-4.17L-9.85-4.17Q-9.44-3.66-9.22-2.83L-9.22-2.83L-9.22-2.83Q-9-2.01-9-0.78L-9-0.78M-10.26 0.93L-10.26-0.99L-10.26-0.99Q-10.26-1.84-10.38-2.42L-10.38-2.42L-10.38-2.42Q-10.50-3.01-10.74-3.38L-10.74-3.38L-10.74-3.38Q-10.98-3.74-11.33-3.91L-11.33-3.91L-11.33-3.91Q-11.69-4.07-12.14-4.07L-12.14-4.07L-12.14-4.07Q-12.60-4.07-12.95-3.91L-12.95-3.91L-12.95-3.91Q-13.30-3.74-13.54-3.38L-13.54-3.38L-13.54-3.38Q-13.77-3.01-13.89-2.42L-13.89-2.42L-13.89-2.42Q-14.02-1.84-14.02-0.99L-14.02-0.99L-14.02 0.93L-14.02 0.93Q-14.02 1.77-13.89 2.37L-13.89 2.37L-13.89 2.37Q-13.77 2.96-13.53 3.35L-13.53 3.35L-13.53 3.35Q-13.29 3.73-12.93 3.91L-12.93 3.91L-12.93 3.91Q-12.58 4.08-12.13 4.08L-12.13 4.08L-12.13 4.08Q-11.67 4.08-11.32 3.91L-11.32 3.91L-11.32 3.91Q-10.97 3.73-10.73 3.35L-10.73 3.35L-10.73 3.35Q-10.50 2.96-10.38 2.37L-10.38 2.37L-10.38 2.37Q-10.26 1.77-10.26 0.93L-10.26 0.93Z" fill="#000" stroke="none"></path></g></g><g transform="translate(0,79.2)"><line stroke="#000" x2="-6" y1="0.5" y2="0.5"></line><g><path d="M-18.26-4.98L-18.14-4.98L-18.14-3.91L-18.26-3.91L-18.26-3.91Q-19.17-3.91-19.80-3.63L-19.80-3.63L-19.80-3.63Q-20.44-3.36-20.85-2.91L-20.85-2.91L-20.85-2.91Q-21.26-2.45-21.47-1.86L-21.47-1.86L-21.47-1.86Q-21.68-1.27-21.74-0.65L-21.74-0.65L-21.74-0.65Q-21.33-1.12-20.77-1.33L-20.77-1.33L-20.77-1.33Q-20.22-1.55-19.59-1.55L-19.59-1.55L-19.59-1.55Q-18.84-1.55-18.31-1.26L-18.31-1.26L-18.31-1.26Q-17.77-0.98-17.42-0.52L-17.42-0.52L-17.42-0.52Q-17.07-0.06-16.91 0.53L-16.91 0.53L-16.91 0.53Q-16.74 1.12-16.74 1.73L-16.74 1.73L-16.74 1.73Q-16.74 2.44-16.94 3.06L-16.94 3.06L-16.94 3.06Q-17.13 3.68-17.52 4.14L-17.52 4.14L-17.52 4.14Q-17.91 4.59-18.49 4.85L-18.49 4.85L-18.49 4.85Q-19.06 5.12-19.82 5.12L-19.82 5.12L-19.82 5.12Q-20.63 5.12-21.23 4.78L-21.23 4.78L-21.23 4.78Q-21.83 4.45-22.23 3.90L-22.23 3.90L-22.23 3.90Q-22.63 3.36-22.83 2.68L-22.83 2.68L-22.83 2.68Q-23.03 1.99-23.03 1.30L-23.03 1.30L-23.03 0.71L-23.03 0.71Q-23.03 0.01-22.94-0.68L-22.94-0.68L-22.94-0.68Q-22.86-1.38-22.64-2.01L-22.64-2.01L-22.64-2.01Q-22.43-2.64-22.08-3.19L-22.08-3.19L-22.08-3.19Q-21.73-3.73-21.20-4.13L-21.20-4.13L-21.20-4.13Q-20.67-4.53-19.94-4.75L-19.94-4.75L-19.94-4.75Q-19.21-4.98-18.26-4.98L-18.26-4.98M-19.80-0.50L-19.80-0.50L-19.80-0.50Q-20.14-0.50-20.44-0.39L-20.44-0.39L-20.44-0.39Q-20.75-0.28-21.01-0.10L-21.01-0.10L-21.01-0.10Q-21.26 0.09-21.46 0.33L-21.46 0.33L-21.46 0.33Q-21.65 0.58-21.76 0.87L-21.76 0.87L-21.76 1.34L-21.76 1.34Q-21.76 2.01-21.60 2.52L-21.60 2.52L-21.60 2.52Q-21.43 3.02-21.16 3.37L-21.16 3.37L-21.16 3.37Q-20.89 3.72-20.55 3.89L-20.55 3.89L-20.55 3.89Q-20.20 4.07-19.82 4.07L-19.82 4.07L-19.82 4.07Q-19.38 4.07-19.04 3.90L-19.04 3.90L-19.04 3.90Q-18.70 3.74-18.46 3.43L-18.46 3.43L-18.46 3.43Q-18.23 3.13-18.11 2.71L-18.11 2.71L-18.11 2.71Q-17.98 2.29-17.98 1.79L-17.98 1.79L-17.98 1.79Q-17.98 1.35-18.10 0.94L-18.10 0.94L-18.10 0.94Q-18.21 0.52-18.43 0.21L-18.43 0.21L-18.43 0.21Q-18.66-0.11-19.00-0.30L-19.00-0.30L-19.00-0.30Q-19.34-0.50-19.80-0.50ZM-9-0.78L-9 0.73L-9 0.73Q-9 1.96-9.22 2.80L-9.22 2.80L-9.22 2.80Q-9.44 3.63-9.84 4.15L-9.84 4.15L-9.84 4.15Q-10.25 4.67-10.83 4.89L-10.83 4.89L-10.83 4.89Q-11.41 5.12-12.13 5.12L-12.13 5.12L-12.13 5.12Q-12.85 5.12-13.43 4.89L-13.43 4.89L-13.43 4.89Q-14.01 4.67-14.42 4.15L-14.42 4.15L-14.42 4.15Q-14.83 3.63-15.06 2.80L-15.06 2.80L-15.06 2.80Q-15.28 1.96-15.28 0.73L-15.28 0.73L-15.28-0.78L-15.28-0.78Q-15.28-2.01-15.06-2.83L-15.06-2.83L-15.06-2.83Q-14.84-3.66-14.43-4.17L-14.43-4.17L-14.43-4.17Q-14.02-4.67-13.44-4.89L-13.44-4.89L-13.44-4.89Q-12.86-5.11-12.14-5.11L-12.14-5.11L-12.14-5.11Q-11.42-5.11-10.84-4.89L-10.84-4.89L-10.84-4.89Q-10.26-4.67-9.85-4.17L-9.85-4.17L-9.85-4.17Q-9.44-3.66-9.22-2.83L-9.22-2.83L-9.22-2.83Q-9-2.01-9-0.78L-9-0.78M-10.26 0.93L-10.26-0.99L-10.26-0.99Q-10.26-1.84-10.38-2.42L-10.38-2.42L-10.38-2.42Q-10.50-3.01-10.74-3.38L-10.74-3.38L-10.74-3.38Q-10.98-3.74-11.33-3.91L-11.33-3.91L-11.33-3.91Q-11.69-4.07-12.14-4.07L-12.14-4.07L-12.14-4.07Q-12.60-4.07-12.95-3.91L-12.95-3.91L-12.95-3.91Q-13.30-3.74-13.54-3.38L-13.54-3.38L-13.54-3.38Q-13.77-3.01-13.89-2.42L-13.89-2.42L-13.89-2.42Q-14.02-1.84-14.02-0.99L-14.02-0.99L-14.02 0.93L-14.02 0.93Q-14.02 1.77-13.89 2.37L-13.89 2.37L-13.89 2.37Q-13.77 2.96-13.53 3.35L-13.53 3.35L-13.53 3.35Q-13.29 3.73-12.93 3.91L-12.93 3.91L-12.93 3.91Q-12.58 4.08-12.13 4.08L-12.13 4.08L-12.13 4.08Q-11.67 4.08-11.32 3.91L-11.32 3.91L-11.32 3.91Q-10.97 3.73-10.73 3.35L-10.73 3.35L-10.73 3.35Q-10.50 2.96-10.38 2.37L-10.38 2.37L-10.38 2.37Q-10.26 1.77-10.26 0.93L-10.26 0.93Z" fill="#000" stroke="none"></path></g></g><g transform="translate(0,39.599999999999994)"><line stroke="#000" x2="-6" y1="0.5" y2="0.5"></line><g><path d="M-17.07-2.38L-17.07-2.38L-17.07-2.38Q-17.07-1.63-17.46-1.05L-17.46-1.05L-17.46-1.05Q-17.85-0.47-18.52-0.14L-18.52-0.14L-18.52-0.14Q-18.14 0.02-17.83 0.27L-17.83 0.27L-17.83 0.27Q-17.52 0.52-17.30 0.83L-17.30 0.83L-17.30 0.83Q-17.07 1.14-16.95 1.51L-16.95 1.51L-16.95 1.51Q-16.83 1.88-16.83 2.29L-16.83 2.29L-16.83 2.29Q-16.83 2.98-17.08 3.50L-17.08 3.50L-17.08 3.50Q-17.32 4.03-17.75 4.39L-17.75 4.39L-17.75 4.39Q-18.17 4.75-18.75 4.93L-18.75 4.93L-18.75 4.93Q-19.33 5.12-20.00 5.12L-20.00 5.12L-20.00 5.12Q-20.67 5.12-21.25 4.93L-21.25 4.93L-21.25 4.93Q-21.83 4.75-22.25 4.39L-22.25 4.39L-22.25 4.39Q-22.68 4.03-22.92 3.50L-22.92 3.50L-22.92 3.50Q-23.16 2.98-23.16 2.29L-23.16 2.29L-23.16 2.29Q-23.16 1.88-23.05 1.51L-23.05 1.51L-23.05 1.51Q-22.93 1.14-22.72 0.82L-22.72 0.82L-22.72 0.82Q-22.50 0.51-22.19 0.26L-22.19 0.26L-22.19 0.26Q-21.89 0.02-21.50-0.15L-21.50-0.15L-21.50-0.15Q-22.17-0.48-22.55-1.06L-22.55-1.06L-22.55-1.06Q-22.93-1.64-22.93-2.38L-22.93-2.38L-22.93-2.38Q-22.93-3.02-22.71-3.53L-22.71-3.53L-22.71-3.53Q-22.49-4.04-22.10-4.39L-22.10-4.39L-22.10-4.39Q-21.71-4.74-21.17-4.93L-21.17-4.93L-21.17-4.93Q-20.63-5.11-20.00-5.11L-20.00-5.11L-20.00-5.11Q-19.36-5.11-18.83-4.93L-18.83-4.93L-18.83-4.93Q-18.29-4.74-17.90-4.39L-17.90-4.39L-17.90-4.39Q-17.50-4.04-17.29-3.53L-17.29-3.53L-17.29-3.53Q-17.07-3.02-17.07-2.38M-18.10 2.27L-18.10 2.27L-18.10 2.27Q-18.10 1.85-18.24 1.50L-18.24 1.50L-18.24 1.50Q-18.38 1.15-18.63 0.90L-18.63 0.90L-18.63 0.90Q-18.88 0.65-19.24 0.52L-19.24 0.52L-19.24 0.52Q-19.59 0.38-20.01 0.38L-20.01 0.38L-20.01 0.38Q-20.44 0.38-20.79 0.52L-20.79 0.52L-20.79 0.52Q-21.14 0.65-21.39 0.90L-21.39 0.90L-21.39 0.90Q-21.63 1.15-21.77 1.50L-21.77 1.50L-21.77 1.50Q-21.90 1.85-21.90 2.27L-21.90 2.27L-21.90 2.27Q-21.90 2.70-21.77 3.03L-21.77 3.03L-21.77 3.03Q-21.64 3.37-21.39 3.60L-21.39 3.60L-21.39 3.60Q-21.15 3.84-20.80 3.96L-20.80 3.96L-20.80 3.96Q-20.44 4.08-20.00 4.08L-20.00 4.08L-20.00 4.08Q-19.56 4.08-19.21 3.96L-19.21 3.96L-19.21 3.96Q-18.86 3.84-18.61 3.60L-18.61 3.60L-18.61 3.60Q-18.37 3.37-18.23 3.03L-18.23 3.03L-18.23 3.03Q-18.10 2.70-18.10 2.27M-18.33-2.35L-18.33-2.35L-18.33-2.35Q-18.33-2.72-18.45-3.04L-18.45-3.04L-18.45-3.04Q-18.57-3.35-18.79-3.58L-18.79-3.58L-18.79-3.58Q-19.01-3.81-19.32-3.94L-19.32-3.94L-19.32-3.94Q-19.63-4.07-20.00-4.07L-20.00-4.07L-20.00-4.07Q-20.37-4.07-20.68-3.95L-20.68-3.95L-20.68-3.95Q-20.98-3.83-21.21-3.61L-21.21-3.61L-21.21-3.61Q-21.43-3.39-21.55-3.07L-21.55-3.07L-21.55-3.07Q-21.67-2.75-21.67-2.35L-21.67-2.35L-21.67-2.35Q-21.67-1.97-21.55-1.66L-21.55-1.66L-21.55-1.66Q-21.43-1.34-21.21-1.12L-21.21-1.12L-21.21-1.12Q-20.99-0.90-20.68-0.78L-20.68-0.78L-20.68-0.78Q-20.38-0.66-20.00-0.66L-20.00-0.66L-20.00-0.66Q-19.62-0.66-19.32-0.78L-19.32-0.78L-19.32-0.78Q-19.01-0.90-18.79-1.12L-18.79-1.12L-18.79-1.12Q-18.57-1.34-18.45-1.66L-18.45-1.66L-18.45-1.66Q-18.33-1.97-18.33-2.35ZM-9-0.78L-9 0.73L-9 0.73Q-9 1.96-9.22 2.80L-9.22 2.80L-9.22 2.80Q-9.44 3.63-9.84 4.15L-9.84 4.15L-9.84 4.15Q-10.25 4.67-10.83 4.89L-10.83 4.89L-10.83 4.89Q-11.41 5.12-12.13 5.12L-12.13 5.12L-12.13 5.12Q-12.85 5.12-13.43 4.89L-13.43 4.89L-13.43 4.89Q-14.01 4.67-14.42 4.15L-14.42 4.15L-14.42 4.15Q-14.83 3.63-15.06 2.80L-15.06 2.80L-15.06 2.80Q-15.28 1.96-15.28 0.73L-15.28 0.73L-15.28-0.78L-15.28-0.78Q-15.28-2.01-15.06-2.83L-15.06-2.83L-15.06-2.83Q-14.84-3.66-14.43-4.17L-14.43-4.17L-14.43-4.17Q-14.02-4.67-13.44-4.89L-13.44-4.89L-13.44-4.89Q-12.86-5.11-12.14-5.11L-12.14-5.11L-12.14-5.11Q-11.42-5.11-10.84-4.89L-10.84-4.89L-10.84-4.89Q-10.26-4.67-9.85-4.17L-9.85-4.17L-9.85-4.17Q-9.44-3.66-9.22-2.83L-9.22-2.83L-9.22-2.83Q-9-2.01-9-0.78L-9-0.78M-10.26 0.93L-10.26-0.99L-10.26-0.99Q-10.26-1.84-10.38-2.42L-10.38-2.42L-10.38-2.42Q-10.50-3.01-10.74-3.38L-10.74-3.38L-10.74-3.38Q-10.98-3.74-11.33-3.91L-11.33-3.91L-11.33-3.91Q-11.69-4.07-12.14-4.07L-12.14-4.07L-12.14-4.07Q-12.60-4.07-12.95-3.91L-12.95-3.91L-12.95-3.91Q-13.30-3.74-13.54-3.38L-13.54-3.38L-13.54-3.38Q-13.77-3.01-13.89-2.42L-13.89-2.42L-13.89-2.42Q-14.02-1.84-14.02-0.99L-14.02-0.99L-14.02 0.93L-14.02 0.93Q-14.02 1.77-13.89 2.37L-13.89 2.37L-13.89 2.37Q-13.77 2.96-13.53 3.35L-13.53 3.35L-13.53 3.35Q-13.29 3.73-12.93 3.91L-12.93 3.91L-12.93 3.91Q-12.58 4.08-12.13 4.08L-12.13 4.08L-12.13 4.08Q-11.67 4.08-11.32 3.91L-11.32 3.91L-11.32 3.91Q-10.97 3.73-10.73 3.35L-10.73 3.35L-10.73 3.35Q-10.50 2.96-10.38 2.37L-10.38 2.37L-10.38 2.37Q-10.26 1.77-10.26 0.93L-10.26 0.93Z" fill="#000" stroke="none"></path></g></g><g transform="translate(0,0.0)"><line stroke="#000" x2="-6" y1="0.5" y2="0.5"></line><g><path d="M-26.81-5.02L-26.81 4.98L-28.08 4.98L-28.08-3.45L-30.63-2.51L-30.63-3.66L-27.01-5.02L-26.81-5.02ZM-16.86-0.78L-16.86 0.73L-16.86 0.73Q-16.86 1.96-17.08 2.80L-17.08 2.80L-17.08 2.80Q-17.30 3.63-17.71 4.15L-17.71 4.15L-17.71 4.15Q-18.11 4.67-18.69 4.89L-18.69 4.89L-18.69 4.89Q-19.27 5.12-19.99 5.12L-19.99 5.12L-19.99 5.12Q-20.71 5.12-21.29 4.89L-21.29 4.89L-21.29 4.89Q-21.87 4.67-22.28 4.15L-22.28 4.15L-22.28 4.15Q-22.69 3.63-22.92 2.80L-22.92 2.80L-22.92 2.80Q-23.14 1.96-23.14 0.73L-23.14 0.73L-23.14-0.78L-23.14-0.78Q-23.14-2.01-22.92-2.83L-22.92-2.83L-22.92-2.83Q-22.70-3.66-22.29-4.17L-22.29-4.17L-22.29-4.17Q-21.88-4.67-21.30-4.89L-21.30-4.89L-21.30-4.89Q-20.72-5.11-20.01-5.11L-20.01-5.11L-20.01-5.11Q-19.28-5.11-18.70-4.89L-18.70-4.89L-18.70-4.89Q-18.12-4.67-17.71-4.17L-17.71-4.17L-17.71-4.17Q-17.30-3.66-17.08-2.83L-17.08-2.83L-17.08-2.83Q-16.86-2.01-16.86-0.78L-16.86-0.78M-18.13 0.93L-18.13-0.99L-18.13-0.99Q-18.13-1.84-18.25-2.42L-18.25-2.42L-18.25-2.42Q-18.37-3.01-18.60-3.38L-18.60-3.38L-18.60-3.38Q-18.84-3.74-19.20-3.91L-19.20-3.91L-19.20-3.91Q-19.55-4.07-20.01-4.07L-20.01-4.07L-20.01-4.07Q-20.46-4.07-20.81-3.91L-20.81-3.91L-20.81-3.91Q-21.16-3.74-21.40-3.38L-21.40-3.38L-21.40-3.38Q-21.63-3.01-21.76-2.42L-21.76-2.42L-21.76-2.42Q-21.88-1.84-21.88-0.99L-21.88-0.99L-21.88 0.93L-21.88 0.93Q-21.88 1.77-21.76 2.37L-21.76 2.37L-21.76 2.37Q-21.63 2.96-21.39 3.35L-21.39 3.35L-21.39 3.35Q-21.15 3.73-20.80 3.91L-20.80 3.91L-20.80 3.91Q-20.44 4.08-19.99 4.08L-19.99 4.08L-19.99 4.08Q-19.53 4.08-19.18 3.91L-19.18 3.91L-19.18 3.91Q-18.83 3.73-18.59 3.35L-18.59 3.35L-18.59 3.35Q-18.36 2.96-18.24 2.37L-18.24 2.37L-18.24 2.37Q-18.13 1.77-18.13 0.93L-18.13 0.93ZM-9-0.78L-9 0.73L-9 0.73Q-9 1.96-9.22 2.80L-9.22 2.80L-9.22 2.80Q-9.44 3.63-9.84 4.15L-9.84 4.15L-9.84 4.15Q-10.25 4.67-10.83 4.89L-10.83 4.89L-10.83 4.89Q-11.41 5.12-12.13 5.12L-12.13 5.12L-12.13 5.12Q-12.85 5.12-13.43 4.89L-13.43 4.89L-13.43 4.89Q-14.01 4.67-14.42 4.15L-14.42 4.15L-14.42 4.15Q-14.83 3.63-15.06 2.80L-15.06 2.80L-15.06 2.80Q-15.28 1.96-15.28 0.73L-15.28 0.73L-15.28-0.78L-15.28-0.78Q-15.28-2.01-15.06-2.83L-15.06-2.83L-15.06-2.83Q-14.84-3.66-14.43-4.17L-14.43-4.17L-14.43-4.17Q-14.02-4.67-13.44-4.89L-13.44-4.89L-13.44-4.89Q-12.86-5.11-12.14-5.11L-12.14-5.11L-12.14-5.11Q-11.42-5.11-10.84-4.89L-10.84-4.89L-10.84-4.89Q-10.26-4.67-9.85-4.17L-9.85-4.17L-9.85-4.17Q-9.44-3.66-9.22-2.83L-9.22-2.83L-9.22-2.83Q-9-2.01-9-0.78L-9-0.78M-10.26 0.93L-10.26-0.99L-10.26-0.99Q-10.26-1.84-10.38-2.42L-10.38-2.42L-10.38-2.42Q-10.50-3.01-10.74-3.38L-10.74-3.38L-10.74-3.38Q-10.98-3.74-11.33-3.91L-11.33-3.91L-11.33-3.91Q-11.69-4.07-12.14-4.07L-12.14-4.07L-12.14-4.07Q-12.60-4.07-12.95-3.91L-12.95-3.91L-12.95-3.91Q-13.30-3.74-13.54-3.38L-13.54-3.38L-13.54-3.38Q-13.77-3.01-13.89-2.42L-13.89-2.42L-13.89-2.42Q-14.02-1.84-14.02-0.99L-14.02-0.99L-14.02 0.93L-14.02 0.93Q-14.02 1.77-13.89 2.37L-13.89 2.37L-13.89 2.37Q-13.77 2.96-13.53 3.35L-13.53 3.35L-13.53 3.35Q-13.29 3.73-12.93 3.91L-12.93 3.91L-12.93 3.91Q-12.58 4.08-12.13 4.08L-12.13 4.08L-12.13 4.08Q-11.67 4.08-11.32 3.91L-11.32 3.91L-11.32 3.91Q-10.97 3.73-10.73 3.35L-10.73 3.35L-10.73 3.35Q-10.50 2.96-10.38 2.37L-10.38 2.37L-10.38 2.37Q-10.26 1.77-10.26 0.93L-10.26 0.93Z" fill="#000" stroke="none"></path></g></g></g><g transform="translate(256.0,0)"><g><path d="M6,198.5 H0.5 V0.5 H6" fill="none" stroke-width="1" stroke="#000"></path><g transform="translate(0,198.0)"><line stroke="#000" x2="6" y1="0.5" y2="0.5"></line><g><path d="M16.07-0.78L16.07 0.73L16.07 0.73Q16.07 1.96 15.85 2.80L15.85 2.80L15.85 2.80Q15.63 3.63 15.22 4.15L15.22 4.15L15.22 4.15Q14.82 4.67 14.24 4.89L14.24 4.89L14.24 4.89Q13.66 5.12 12.94 5.12L12.94 5.12L12.94 5.12Q12.22 5.12 11.64 4.89L11.64 4.89L11.64 4.89Q11.06 4.67 10.65 4.15L10.65 4.15L10.65 4.15Q10.24 3.63 10.01 2.80L10.01 2.80L10.01 2.80Q9.79 1.96 9.79 0.73L9.79 0.73L9.79-0.78L9.79-0.78Q9.79-2.01 10.01-2.83L10.01-2.83L10.01-2.83Q10.23-3.66 10.64-4.17L10.64-4.17L10.64-4.17Q11.05-4.67 11.63-4.89L11.63-4.89L11.63-4.89Q12.21-5.11 12.92-5.11L12.92-5.11L12.92-5.11Q13.65-5.11 14.23-4.89L14.23-4.89L14.23-4.89Q14.81-4.67 15.22-4.17L15.22-4.17L15.22-4.17Q15.63-3.66 15.85-2.83L15.85-2.83L15.85-2.83Q16.07-2.01 16.07-0.78L16.07-0.78M14.80 0.93L14.80-0.99L14.80-0.99Q14.80-1.84 14.68-2.42L14.68-2.42L14.68-2.42Q14.56-3.01 14.33-3.38L14.33-3.38L14.33-3.38Q14.09-3.74 13.73-3.91L13.73-3.91L13.73-3.91Q13.38-4.07 12.92-4.07L12.92-4.07L12.92-4.07Q12.47-4.07 12.12-3.91L12.12-3.91L12.12-3.91Q11.77-3.74 11.53-3.38L11.53-3.38L11.53-3.38Q11.30-3.01 11.17-2.42L11.17-2.42L11.17-2.42Q11.05-1.84 11.05-0.99L11.05-0.99L11.05 0.93L11.05 0.93Q11.05 1.77 11.17 2.37L11.17 2.37L11.17 2.37Q11.30 2.96 11.54 3.35L11.54 3.35L11.54 3.35Q11.78 3.73 12.13 3.91L12.13 3.91L12.13 3.91Q12.49 4.08 12.94 4.08L12.94 4.08L12.94 4.08Q13.40 4.08 13.75 3.91L13.75 3.91L13.75 3.91Q14.10 3.73 14.34 3.35L14.34 3.35L14.34 3.35Q14.57 2.96 14.69 2.37L14.69 2.37L14.69 2.37Q14.80 1.77 14.80 0.93L14.80 0.93Z" fill="#000" stroke="none"></path></g></g><g transform="translate(0,158.4)"><line stroke="#000" x2="6" y1="0.5" y2="0.5"></line><g><path d="M16.35 3.95L16.35 4.98L9.83 4.98L9.83 4.07L13.09 0.45L13.09 0.45Q13.54-0.05 13.84-0.43L13.84-0.43L13.84-0.43Q14.13-0.82 14.31-1.13L14.31-1.13L14.31-1.13Q14.48-1.45 14.55-1.73L14.55-1.73L14.55-1.73Q14.62-2.01 14.62-2.29L14.62-2.29L14.62-2.29Q14.62-2.66 14.50-2.99L14.50-2.99L14.50-2.99Q14.39-3.31 14.17-3.55L14.17-3.55L14.17-3.55Q13.95-3.79 13.63-3.93L13.63-3.93L13.63-3.93Q13.31-4.07 12.89-4.07L12.89-4.07L12.89-4.07Q12.38-4.07 12.01-3.92L12.01-3.92L12.01-3.92Q11.64-3.77 11.39-3.50L11.39-3.50L11.39-3.50Q11.15-3.24 11.02-2.86L11.02-2.86L11.02-2.86Q10.90-2.49 10.90-2.04L10.90-2.04L9.64-2.04L9.64-2.04Q9.64-2.67 9.84-3.23L9.84-3.23L9.84-3.23Q10.05-3.79 10.46-4.21L10.46-4.21L10.46-4.21Q10.87-4.62 11.48-4.87L11.48-4.87L11.48-4.87Q12.09-5.11 12.89-5.11L12.89-5.11L12.89-5.11Q13.59-5.11 14.15-4.92L14.15-4.92L14.15-4.92Q14.71-4.73 15.09-4.37L15.09-4.37L15.09-4.37Q15.48-4.02 15.69-3.53L15.69-3.53L15.69-3.53Q15.89-3.04 15.89-2.44L15.89-2.44L15.89-2.44Q15.89-2.01 15.74-1.56L15.74-1.56L15.74-1.56Q15.59-1.12 15.34-0.68L15.34-0.68L15.34-0.68Q15.08-0.24 14.74 0.20L14.74 0.20L14.74 0.20Q14.40 0.63 14.02 1.05L14.02 1.05L11.35 3.95L16.35 3.95ZM23.93-0.78L23.93 0.73L23.93 0.73Q23.93 1.96 23.71 2.80L23.71 2.80L23.71 2.80Q23.49 3.63 23.09 4.15L23.09 4.15L23.09 4.15Q22.68 4.67 22.10 4.89L22.10 4.89L22.10 4.89Q21.52 5.12 20.80 5.12L20.80 5.12L20.80 5.12Q20.08 5.12 19.50 4.89L19.50 4.89L19.50 4.89Q18.92 4.67 18.51 4.15L18.51 4.15L18.51 4.15Q18.10 3.63 17.87 2.80L17.87 2.80L17.87 2.80Q17.65 1.96 17.65 0.73L17.65 0.73L17.65-0.78L17.65-0.78Q17.65-2.01 17.87-2.83L17.87-2.83L17.87-2.83Q18.09-3.66 18.50-4.17L18.50-4.17L18.50-4.17Q18.91-4.67 19.49-4.89L19.49-4.89L19.49-4.89Q20.07-5.11 20.79-5.11L20.79-5.11L20.79-5.11Q21.51-5.11 22.09-4.89L22.09-4.89L22.09-4.89Q22.67-4.67 23.08-4.17L23.08-4.17L23.08-4.17Q23.49-3.66 23.71-2.83L23.71-2.83L23.71-2.83Q23.93-2.01 23.93-0.78L23.93-0.78M22.67 0.93L22.67-0.99L22.67-0.99Q22.67-1.84 22.55-2.42L22.55-2.42L22.55-2.42Q22.43-3.01 22.19-3.38L22.19-3.38L22.19-3.38Q21.95-3.74 21.60-3.91L21.60-3.91L21.60-3.91Q21.24-4.07 20.79-4.07L20.79-4.07L20.79-4.07Q20.33-4.07 19.98-3.91L19.98-3.91L19.98-3.91Q19.63-3.74 19.39-3.38L19.39-3.38L19.39-3.38Q19.16-3.01 19.04-2.42L19.04-2.42L19.04-2.42Q18.91-1.84 18.91-0.99L18.91-0.99L18.91 0.93L18.91 0.93Q18.91 1.77 19.04 2.37L19.04 2.37L19.04 2.37Q19.16 2.96 19.40 3.35L19.40 3.35L19.40 3.35Q19.64 3.73 20.00 3.91L20.00 3.91L20.00 3.91Q20.35 4.08 20.80 4.08L20.80 4.08L20.80 4.08Q21.26 4.08 21.61 3.91L21.61 3.91L21.61 3.91Q21.96 3.73 22.20 3.35L22.20 3.35L22.20 3.35Q22.43 2.96 22.55 2.37L22.55 2.37L22.55 2.37Q22.67 1.77 22.67 0.93L22.67 0.93Z" fill="#000" stroke="none"></path></g></g><g transform="translate(0,118.8)"><line stroke="#000" x2="6" y1="0.5" y2="0.5"></line><g><path d="M15.17-4.97L15.17 1.64L16.55 1.64L16.55 2.67L15.17 2.67L15.17 4.98L13.89 4.98L13.89 2.67L9.36 2.67L9.36 1.92L13.82-4.97L15.17-4.97M13.74-2.97L10.80 1.64L13.89 1.64L13.89-3.24L13.74-2.97ZM23.93-0.78L23.93 0.73L23.93 0.73Q23.93 1.96 23.71 2.80L23.71 2.80L23.71 2.80Q23.49 3.63 23.09 4.15L23.09 4.15L23.09 4.15Q22.68 4.67 22.10 4.89L22.10 4.89L22.10 4.89Q21.52 5.12 20.80 5.12L20.80 5.12L20.80 5.12Q20.08 5.12 19.50 4.89L19.50 4.89L19.50 4.89Q18.92 4.67 18.51 4.15L18.51 4.15L18.51 4.15Q18.10 3.63 17.87 2.80L17.87 2.80L17.87 2.80Q17.65 1.96 17.65 0.73L17.65 0.73L17.65-0.78L17.65-0.78Q17.65-2.01 17.87-2.83L17.87-2.83L17.87-2.83Q18.09-3.66 18.50-4.17L18.50-4.17L18.50-4.17Q18.91-4.67 19.49-4.89L19.49-4.89L19.49-4.89Q20.07-5.11 20.79-5.11L20.79-5.11L20.79-5.11Q21.51-5.11 22.09-4.89L22.09-4.89L22.09-4.89Q22.67-4.67 23.08-4.17L23.08-4.17L23.08-4.17Q23.49-3.66 23.71-2.83L23.71-2.83L23.71-2.83Q23.93-2.01 23.93-0.78L23.93-0.78M22.67 0.93L22.67-0.99L22.67-0.99Q22.67-1.84 22.55-2.42L22.55-2.42L22.55-2.42Q22.43-3.01 22.19-3.38L22.19-3.38L22.19-3.38Q21.95-3.74 21.60-3.91L21.60-3.91L21.60-3.91Q21.24-4.07 20.79-4.07L20.79-4.07L20.79-4.07Q20.33-4.07 19.98-3.91L19.98-3.91L19.98-3.91Q19.63-3.74 19.39-3.38L19.39-3.38L19.39-3.38Q19.16-3.01 19.04-2.42L19.04-2.42L19.04-2.42Q18.91-1.84 18.91-0.99L18.91-0.99L18.91 0.93L18.91 0.93Q18.91 1.77 19.04 2.37L19.04 2.37L19.04 2.37Q19.16 2.96 19.40 3.35L19.40 3.35L19.40 3.35Q19.64 3.73 20.00 3.91L20.00 3.91L20.00 3.91Q20.35 4.08 20.80 4.08L20.80 4.08L20.80 4.08Q21.26 4.08 21.61 3.91L21.61 3.91L21.61 3.91Q21.96 3.73 22.20 3.35L22.20 3.35L22.20 3.35Q22.43 2.96 22.55 2.37L22.55 2.37L22.55 2.37Q22.67 1.77 22.67 0.93L22.67 0.93Z" fill="#000" stroke="none"></path></g></g><g transform="translate(0,79.2)"><line stroke="#000" x2="6" y1="0.5" y2="0.5"></line><g><path d="M14.67-4.98L14.78-4.98L14.78-3.91L14.67-3.91L14.67-3.91Q13.76-3.91 13.12-3.63L13.12-3.63L13.12-3.63Q12.49-3.36 12.08-2.91L12.08-2.91L12.08-2.91Q11.67-2.45 11.45-1.86L11.45-1.86L11.45-1.86Q11.24-1.27 11.19-0.65L11.19-0.65L11.19-0.65Q11.60-1.12 12.15-1.33L12.15-1.33L12.15-1.33Q12.70-1.55 13.33-1.55L13.33-1.55L13.33-1.55Q14.08-1.55 14.62-1.26L14.62-1.26L14.62-1.26Q15.15-0.98 15.50-0.52L15.50-0.52L15.50-0.52Q15.85-0.06 16.02 0.53L16.02 0.53L16.02 0.53Q16.18 1.12 16.18 1.73L16.18 1.73L16.18 1.73Q16.18 2.44 15.99 3.06L15.99 3.06L15.99 3.06Q15.79 3.68 15.40 4.14L15.40 4.14L15.40 4.14Q15.01 4.59 14.43 4.85L14.43 4.85L14.43 4.85Q13.86 5.12 13.10 5.12L13.10 5.12L13.10 5.12Q12.29 5.12 11.69 4.78L11.69 4.78L11.69 4.78Q11.09 4.45 10.69 3.90L10.69 3.90L10.69 3.90Q10.29 3.36 10.09 2.68L10.09 2.68L10.09 2.68Q9.90 1.99 9.90 1.30L9.90 1.30L9.90 0.71L9.90 0.71Q9.90 0.01 9.98-0.68L9.98-0.68L9.98-0.68Q10.07-1.38 10.28-2.01L10.28-2.01L10.28-2.01Q10.49-2.64 10.84-3.19L10.84-3.19L10.84-3.19Q11.19-3.73 11.72-4.13L11.72-4.13L11.72-4.13Q12.25-4.53 12.98-4.75L12.98-4.75L12.98-4.75Q13.71-4.98 14.67-4.98L14.67-4.98M13.12-0.50L13.12-0.50L13.12-0.50Q12.79-0.50 12.48-0.39L12.48-0.39L12.48-0.39Q12.17-0.28 11.92-0.10L11.92-0.10L11.92-0.10Q11.66 0.09 11.46 0.33L11.46 0.33L11.46 0.33Q11.27 0.58 11.17 0.87L11.17 0.87L11.17 1.34L11.17 1.34Q11.17 2.01 11.33 2.52L11.33 2.52L11.33 2.52Q11.49 3.02 11.76 3.37L11.76 3.37L11.76 3.37Q12.03 3.72 12.38 3.89L12.38 3.89L12.38 3.89Q12.73 4.07 13.10 4.07L13.10 4.07L13.10 4.07Q13.54 4.07 13.88 3.90L13.88 3.90L13.88 3.90Q14.22 3.74 14.46 3.43L14.46 3.43L14.46 3.43Q14.69 3.13 14.82 2.71L14.82 2.71L14.82 2.71Q14.94 2.29 14.94 1.79L14.94 1.79L14.94 1.79Q14.94 1.35 14.83 0.94L14.83 0.94L14.83 0.94Q14.71 0.52 14.49 0.21L14.49 0.21L14.49 0.21Q14.26-0.11 13.92-0.30L13.92-0.30L13.92-0.30Q13.58-0.50 13.12-0.50ZM23.92-0.78L23.92 0.73L23.92 0.73Q23.92 1.96 23.70 2.80L23.70 2.80L23.70 2.80Q23.49 3.63 23.08 4.15L23.08 4.15L23.08 4.15Q22.67 4.67 22.09 4.89L22.09 4.89L22.09 4.89Q21.52 5.12 20.79 5.12L20.79 5.12L20.79 5.12Q20.07 5.12 19.49 4.89L19.49 4.89L19.49 4.89Q18.91 4.67 18.50 4.15L18.50 4.15L18.50 4.15Q18.09 3.63 17.87 2.80L17.87 2.80L17.87 2.80Q17.64 1.96 17.64 0.73L17.64 0.73L17.64-0.78L17.64-0.78Q17.64-2.01 17.86-2.83L17.86-2.83L17.86-2.83Q18.08-3.66 18.50-4.17L18.50-4.17L18.50-4.17Q18.91-4.67 19.48-4.89L19.48-4.89L19.48-4.89Q20.06-5.11 20.78-5.11L20.78-5.11L20.78-5.11Q21.50-5.11 22.08-4.89L22.08-4.89L22.08-4.89Q22.67-4.67 23.08-4.17L23.08-4.17L23.08-4.17Q23.49-3.66 23.70-2.83L23.70-2.83L23.70-2.83Q23.92-2.01 23.92-0.78L23.92-0.78M22.66 0.93L22.66-0.99L22.66-0.99Q22.66-1.84 22.54-2.42L22.54-2.42L22.54-2.42Q22.42-3.01 22.18-3.38L22.18-3.38L22.18-3.38Q21.94-3.74 21.59-3.91L21.59-3.91L21.59-3.91Q21.24-4.07 20.78-4.07L20.78-4.07L20.78-4.07Q20.33-4.07 19.98-3.91L19.98-3.91L19.98-3.91Q19.62-3.74 19.39-3.38L19.39-3.38L19.39-3.38Q19.15-3.01 19.03-2.42L19.03-2.42L19.03-2.42Q18.91-1.84 18.91-0.99L18.91-0.99L18.91 0.93L18.91 0.93Q18.91 1.77 19.03 2.37L19.03 2.37L19.03 2.37Q19.15 2.96 19.39 3.35L19.39 3.35L19.39 3.35Q19.64 3.73 19.99 3.91L19.99 3.91L19.99 3.91Q20.34 4.08 20.79 4.08L20.79 4.08L20.79 4.08Q21.26 4.08 21.61 3.91L21.61 3.91L21.61 3.91Q21.95 3.73 22.19 3.35L22.19 3.35L22.19 3.35Q22.43 2.96 22.54 2.37L22.54 2.37L22.54 2.37Q22.66 1.77 22.66 0.93L22.66 0.93Z" fill="#000" stroke="none"></path></g></g><g transform="translate(0,39.599999999999994)"><line stroke="#000" x2="6" y1="0.5" y2="0.5"></line><g><path d="M15.86-2.38L15.86-2.38L15.86-2.38Q15.86-1.63 15.47-1.05L15.47-1.05L15.47-1.05Q15.08-0.47 14.41-0.14L14.41-0.14L14.41-0.14Q14.79 0.02 15.10 0.27L15.10 0.27L15.10 0.27Q15.41 0.52 15.63 0.83L15.63 0.83L15.63 0.83Q15.86 1.14 15.98 1.51L15.98 1.51L15.98 1.51Q16.10 1.88 16.10 2.29L16.10 2.29L16.10 2.29Q16.10 2.98 15.85 3.50L15.85 3.50L15.85 3.50Q15.61 4.03 15.18 4.39L15.18 4.39L15.18 4.39Q14.76 4.75 14.18 4.93L14.18 4.93L14.18 4.93Q13.60 5.12 12.93 5.12L12.93 5.12L12.93 5.12Q12.26 5.12 11.68 4.93L11.68 4.93L11.68 4.93Q11.10 4.75 10.67 4.39L10.67 4.39L10.67 4.39Q10.25 4.03 10.01 3.50L10.01 3.50L10.01 3.50Q9.77 2.98 9.77 2.29L9.77 2.29L9.77 2.29Q9.77 1.88 9.88 1.51L9.88 1.51L9.88 1.51Q10.00 1.14 10.21 0.82L10.21 0.82L10.21 0.82Q10.43 0.51 10.74 0.26L10.74 0.26L10.74 0.26Q11.04 0.02 11.43-0.15L11.43-0.15L11.43-0.15Q10.76-0.48 10.38-1.06L10.38-1.06L10.38-1.06Q10.00-1.64 10.00-2.38L10.00-2.38L10.00-2.38Q10.00-3.02 10.22-3.53L10.22-3.53L10.22-3.53Q10.44-4.04 10.83-4.39L10.83-4.39L10.83-4.39Q11.21-4.74 11.75-4.93L11.75-4.93L11.75-4.93Q12.29-5.11 12.93-5.11L12.93-5.11L12.93-5.11Q13.57-5.11 14.10-4.93L14.10-4.93L14.10-4.93Q14.64-4.74 15.03-4.39L15.03-4.39L15.03-4.39Q15.43-4.04 15.64-3.53L15.64-3.53L15.64-3.53Q15.86-3.02 15.86-2.38M14.83 2.27L14.83 2.27L14.83 2.27Q14.83 1.85 14.69 1.50L14.69 1.50L14.69 1.50Q14.55 1.15 14.30 0.90L14.30 0.90L14.30 0.90Q14.04 0.65 13.69 0.52L13.69 0.52L13.69 0.52Q13.34 0.38 12.92 0.38L12.92 0.38L12.92 0.38Q12.49 0.38 12.14 0.52L12.14 0.52L12.14 0.52Q11.79 0.65 11.54 0.90L11.54 0.90L11.54 0.90Q11.30 1.15 11.16 1.50L11.16 1.50L11.16 1.50Q11.03 1.85 11.03 2.27L11.03 2.27L11.03 2.27Q11.03 2.70 11.16 3.03L11.16 3.03L11.16 3.03Q11.29 3.37 11.54 3.60L11.54 3.60L11.54 3.60Q11.78 3.84 12.13 3.96L12.13 3.96L12.13 3.96Q12.49 4.08 12.93 4.08L12.93 4.08L12.93 4.08Q13.37 4.08 13.72 3.96L13.72 3.96L13.72 3.96Q14.07 3.84 14.32 3.60L14.32 3.60L14.32 3.60Q14.56 3.37 14.70 3.03L14.70 3.03L14.70 3.03Q14.83 2.70 14.83 2.27M14.60-2.35L14.60-2.35L14.60-2.35Q14.60-2.72 14.48-3.04L14.48-3.04L14.48-3.04Q14.36-3.35 14.14-3.58L14.14-3.58L14.14-3.58Q13.92-3.81 13.61-3.94L13.61-3.94L13.61-3.94Q13.30-4.07 12.93-4.07L12.93-4.07L12.93-4.07Q12.56-4.07 12.25-3.95L12.25-3.95L12.25-3.95Q11.95-3.83 11.72-3.61L11.72-3.61L11.72-3.61Q11.50-3.39 11.38-3.07L11.38-3.07L11.38-3.07Q11.26-2.75 11.26-2.35L11.26-2.35L11.26-2.35Q11.26-1.97 11.38-1.66L11.38-1.66L11.38-1.66Q11.50-1.34 11.72-1.12L11.72-1.12L11.72-1.12Q11.94-0.90 12.25-0.78L12.25-0.78L12.25-0.78Q12.55-0.66 12.93-0.66L12.93-0.66L12.93-0.66Q13.31-0.66 13.61-0.78L13.61-0.78L13.61-0.78Q13.92-0.90 14.14-1.12L14.14-1.12L14.14-1.12Q14.36-1.34 14.48-1.66L14.48-1.66L14.48-1.66Q14.60-1.97 14.60-2.35ZM23.93-0.78L23.93 0.73L23.93 0.73Q23.93 1.96 23.71 2.80L23.71 2.80L23.71 2.80Q23.49 3.63 23.09 4.15L23.09 4.15L23.09 4.15Q22.68 4.67 22.10 4.89L22.10 4.89L22.10 4.89Q21.52 5.12 20.80 5.12L20.80 5.12L20.80 5.12Q20.08 5.12 19.50 4.89L19.50 4.89L19.50 4.89Q18.92 4.67 18.51 4.15L18.51 4.15L18.51 4.15Q18.10 3.63 17.87 2.80L17.87 2.80L17.87 2.80Q17.65 1.96 17.65 0.73L17.65 0.73L17.65-0.78L17.65-0.78Q17.65-2.01 17.87-2.83L17.87-2.83L17.87-2.83Q18.09-3.66 18.50-4.17L18.50-4.17L18.50-4.17Q18.91-4.67 19.49-4.89L19.49-4.89L19.49-4.89Q20.07-5.11 20.79-5.11L20.79-5.11L20.79-5.11Q21.51-5.11 22.09-4.89L22.09-4.89L22.09-4.89Q22.67-4.67 23.08-4.17L23.08-4.17L23.08-4.17Q23.49-3.66 23.71-2.83L23.71-2.83L23.71-2.83Q23.93-2.01 23.93-0.78L23.93-0.78M22.67 0.93L22.67-0.99L22.67-0.99Q22.67-1.84 22.55-2.42L22.55-2.42L22.55-2.42Q22.43-3.01 22.19-3.38L22.19-3.38L22.19-3.38Q21.95-3.74 21.60-3.91L21.60-3.91L21.60-3.91Q21.24-4.07 20.79-4.07L20.79-4.07L20.79-4.07Q20.33-4.07 19.98-3.91L19.98-3.91L19.98-3.91Q19.63-3.74 19.39-3.38L19.39-3.38L19.39-3.38Q19.16-3.01 19.04-2.42L19.04-2.42L19.04-2.42Q18.91-1.84 18.91-0.99L18.91-0.99L18.91 0.93L18.91 0.93Q18.91 1.77 19.04 2.37L19.04 2.37L19.04 2.37Q19.16 2.96 19.40 3.35L19.40 3.35L19.40 3.35Q19.64 3.73 20.00 3.91L20.00 3.91L20.00 3.91Q20.35 4.08 20.80 4.08L20.80 4.08L20.80 4.08Q21.26 4.08 21.61 3.91L21.61 3.91L21.61 3.91Q21.96 3.73 22.20 3.35L22.20 3.35L22.20 3.35Q22.43 2.96 22.55 2.37L22.55 2.37L22.55 2.37Q22.67 1.77 22.67 0.93L22.67 0.93Z" fill="#000" stroke="none"></path></g></g><g transform="translate(0,0.0)"><line stroke="#000" x2="6" y1="0.5" y2="0.5"></line><g><path d="M13.98-5.02L13.98 4.98L12.71 4.98L12.71-3.45L10.16-2.51L10.16-3.66L13.79-5.02L13.98-5.02ZM23.93-0.78L23.93 0.73L23.93 0.73Q23.93 1.96 23.71 2.80L23.71 2.80L23.71 2.80Q23.49 3.63 23.09 4.15L23.09 4.15L23.09 4.15Q22.68 4.67 22.10 4.89L22.10 4.89L22.10 4.89Q21.52 5.12 20.80 5.12L20.80 5.12L20.80 5.12Q20.08 5.12 19.50 4.89L19.50 4.89L19.50 4.89Q18.92 4.67 18.51 4.15L18.51 4.15L18.51 4.15Q18.10 3.63 17.87 2.80L17.87 2.80L17.87 2.80Q17.65 1.96 17.65 0.73L17.65 0.73L17.65-0.78L17.65-0.78Q17.65-2.01 17.87-2.83L17.87-2.83L17.87-2.83Q18.09-3.66 18.50-4.17L18.50-4.17L18.50-4.17Q18.91-4.67 19.49-4.89L19.49-4.89L19.49-4.89Q20.07-5.11 20.79-5.11L20.79-5.11L20.79-5.11Q21.51-5.11 22.09-4.89L22.09-4.89L22.09-4.89Q22.67-4.67 23.08-4.17L23.08-4.17L23.08-4.17Q23.49-3.66 23.71-2.83L23.71-2.83L23.71-2.83Q23.93-2.01 23.93-0.78L23.93-0.78M22.67 0.93L22.67-0.99L22.67-0.99Q22.67-1.84 22.55-2.42L22.55-2.42L22.55-2.42Q22.43-3.01 22.19-3.38L22.19-3.38L22.19-3.38Q21.95-3.74 21.60-3.91L21.60-3.91L21.60-3.91Q21.24-4.07 20.79-4.07L20.79-4.07L20.79-4.07Q20.33-4.07 19.98-3.91L19.98-3.91L19.98-3.91Q19.63-3.74 19.39-3.38L19.39-3.38L19.39-3.38Q19.16-3.01 19.04-2.42L19.04-2.42L19.04-2.42Q18.91-1.84 18.91-0.99L18.91-0.99L18.91 0.93L18.91 0.93Q18.91 1.77 19.04 2.37L19.04 2.37L19.04 2.37Q19.16 2.96 19.40 3.35L19.40 3.35L19.40 3.35Q19.64 3.73 20.00 3.91L20.00 3.91L20.00 3.91Q20.35 4.08 20.80 4.08L20.80 4.08L20.80 4.08Q21.26 4.08 21.61 3.91L21.61 3.91L21.61 3.91Q21.96 3.73 22.20 3.35L22.20 3.35L22.20 3.35Q22.43 2.96 22.55 2.37L22.55 2.37L22.55 2.37Q22.67 1.77 22.67 0.93L22.67 0.93ZM31.79-0.78L31.79 0.73L31.79 0.73Q31.79 1.96 31.57 2.80L31.57 2.80L31.57 2.80Q31.35 3.63 30.95 4.15L30.95 4.15L30.95 4.15Q30.54 4.67 29.96 4.89L29.96 4.89L29.96 4.89Q29.38 5.12 28.66 5.12L28.66 5.12L28.66 5.12Q27.94 5.12 27.36 4.89L27.36 4.89L27.36 4.89Q26.78 4.67 26.37 4.15L26.37 4.15L26.37 4.15Q25.96 3.63 25.73 2.80L25.73 2.80L25.73 2.80Q25.51 1.96 25.51 0.73L25.51 0.73L25.51-0.78L25.51-0.78Q25.51-2.01 25.73-2.83L25.73-2.83L25.73-2.83Q25.95-3.66 26.36-4.17L26.36-4.17L26.36-4.17Q26.77-4.67 27.35-4.89L27.35-4.89L27.35-4.89Q27.93-5.11 28.65-5.11L28.65-5.11L28.65-5.11Q29.37-5.11 29.95-4.89L29.95-4.89L29.95-4.89Q30.53-4.67 30.94-4.17L30.94-4.17L30.94-4.17Q31.35-3.66 31.57-2.83L31.57-2.83L31.57-2.83Q31.79-2.01 31.79-0.78L31.79-0.78M30.53 0.93L30.53-0.99L30.53-0.99Q30.53-1.84 30.41-2.42L30.41-2.42L30.41-2.42Q30.29-3.01 30.05-3.38L30.05-3.38L30.05-3.38Q29.81-3.74 29.46-3.91L29.46-3.91L29.46-3.91Q29.10-4.07 28.65-4.07L28.65-4.07L28.65-4.07Q28.20-4.07 27.84-3.91L27.84-3.91L27.84-3.91Q27.49-3.74 27.26-3.38L27.26-3.38L27.26-3.38Q27.02-3.01 26.90-2.42L26.90-2.42L26.90-2.42Q26.77-1.84 26.77-0.99L26.77-0.99L26.77 0.93L26.77 0.93Q26.77 1.77 26.90 2.37L26.90 2.37L26.90 2.37Q27.02 2.96 27.26 3.35L27.26 3.35L27.26 3.35Q27.50 3.73 27.86 3.91L27.86 3.91L27.86 3.91Q28.21 4.08 28.66 4.08L28.66 4.08L28.66 4.08Q29.13 4.08 29.47 3.91L29.47 3.91L29.47 3.91Q29.82 3.73 30.06 3.35L30.06 3.35L30.06 3.35Q30.29 2.96 30.41 2.37L30.41 2.37L30.41 2.37Q30.53 1.77 30.53 0.93L30.53 0.93Z" fill="#000" stroke="none"></path></g></g></g></g></g><g><g><path d="M0.5,-6 V0.5 H256.5 V-6" fill="none" stroke-width="1" stroke="#000"></path><g transform="translate(0.0,0)"><line stroke="#000" x1="0.5" x2="0.5" y2="-6"></line><g><path d="M3.64-14.76L3.64-13.25L3.64-13.25Q3.64-12.02 3.42-11.18L3.42-11.18L3.42-11.18Q3.20-10.35 2.80-9.83L2.80-9.83L2.80-9.83Q2.39-9.31 1.81-9.09L1.81-9.09L1.81-9.09Q1.23-8.86 0.51-8.86L0.51-8.86L0.51-8.86Q-0.21-8.86-0.79-9.09L-0.79-9.09L-0.79-9.09Q-1.37-9.31-1.78-9.83L-1.78-9.83L-1.78-9.83Q-2.19-10.35-2.42-11.18L-2.42-11.18L-2.42-11.18Q-2.64-12.02-2.64-13.25L-2.64-13.25L-2.64-14.76L-2.64-14.76Q-2.64-15.99-2.42-16.81L-2.42-16.81L-2.42-16.81Q-2.20-17.64-1.79-18.15L-1.79-18.15L-1.79-18.15Q-1.38-18.65-0.80-18.87L-0.80-18.87L-0.80-18.87Q-0.22-19.09 0.50-19.09L0.50-19.09L0.50-19.09Q1.22-19.09 1.80-18.87L1.80-18.87L1.80-18.87Q2.38-18.65 2.79-18.15L2.79-18.15L2.79-18.15Q3.20-17.64 3.42-16.81L3.42-16.81L3.42-16.81Q3.64-15.99 3.64-14.76L3.64-14.76M2.38-13.05L2.38-14.97L2.38-14.97Q2.38-15.82 2.26-16.40L2.26-16.40L2.26-16.40Q2.14-16.99 1.90-17.36L1.90-17.36L1.90-17.36Q1.66-17.72 1.31-17.89L1.31-17.89L1.31-17.89Q0.95-18.05 0.50-18.05L0.50-18.05L0.50-18.05Q0.05-18.05-0.31-17.89L-0.31-17.89L-0.31-17.89Q-0.66-17.72-0.89-17.36L-0.89-17.36L-0.89-17.36Q-1.13-16.99-1.25-16.40L-1.25-16.40L-1.25-16.40Q-1.38-15.82-1.38-14.97L-1.38-14.97L-1.38-13.05L-1.38-13.05Q-1.38-12.21-1.25-11.61L-1.25-11.61L-1.25-11.61Q-1.13-11.02-0.89-10.63L-0.89-10.63L-0.89-10.63Q-0.65-10.25-0.29-10.07L-0.29-10.07L-0.29-10.07Q0.06-9.90 0.51-9.90L0.51-9.90L0.51-9.90Q0.98-9.90 1.32-10.07L1.32-10.07L1.32-10.07Q1.67-10.25 1.91-10.63L1.91-10.63L1.91-10.63Q2.14-11.02 2.26-11.61L2.26-11.61L2.26-11.61Q2.38-12.21 2.38-13.05L2.38-13.05Z" fill="#000" stroke="none"></path></g></g><g transform="translate(51.2,0)"><line stroke="#000" x1="0.5" x2="0.5" y2="-6"></line><g><path d="M-3.86-10.03L-3.86-9L-10.39-9L-10.39-9.91L-7.13-13.53L-7.13-13.53Q-6.67-14.03-6.38-14.41L-6.38-14.41L-6.38-14.41Q-6.08-14.80-5.91-15.11L-5.91-15.11L-5.91-15.11Q-5.73-15.43-5.66-15.71L-5.66-15.71L-5.66-15.71Q-5.59-15.99-5.59-16.27L-5.59-16.27L-5.59-16.27Q-5.59-16.64-5.71-16.97L-5.71-16.97L-5.71-16.97Q-5.83-17.29-6.05-17.53L-6.05-17.53L-6.05-17.53Q-6.26-17.77-6.59-17.91L-6.59-17.91L-6.59-17.91Q-6.91-18.05-7.32-18.05L-7.32-18.05L-7.32-18.05Q-7.83-18.05-8.20-17.90L-8.20-17.90L-8.20-17.90Q-8.57-17.75-8.82-17.48L-8.82-17.48L-8.82-17.48Q-9.07-17.22-9.19-16.84L-9.19-16.84L-9.19-16.84Q-9.31-16.47-9.31-16.02L-9.31-16.02L-10.58-16.02L-10.58-16.02Q-10.58-16.65-10.37-17.21L-10.37-17.21L-10.37-17.21Q-10.16-17.77-9.75-18.19L-9.75-18.19L-9.75-18.19Q-9.34-18.60-8.73-18.85L-8.73-18.85L-8.73-18.85Q-8.12-19.09-7.32-19.09L-7.32-19.09L-7.32-19.09Q-6.62-19.09-6.06-18.90L-6.06-18.90L-6.06-18.90Q-5.51-18.71-5.12-18.35L-5.12-18.35L-5.12-18.35Q-4.73-18.00-4.53-17.51L-4.53-17.51L-4.53-17.51Q-4.32-17.02-4.32-16.42L-4.32-16.42L-4.32-16.42Q-4.32-15.99-4.47-15.54L-4.47-15.54L-4.47-15.54Q-4.62-15.10-4.88-14.66L-4.88-14.66L-4.88-14.66Q-5.13-14.22-5.47-13.78L-5.47-13.78L-5.47-13.78Q-5.81-13.35-6.19-12.93L-6.19-12.93L-8.86-10.03L-3.86-10.03ZM3.72-14.76L3.72-13.25L3.72-13.25Q3.72-12.02 3.50-11.18L3.50-11.18L3.50-11.18Q3.28-10.35 2.87-9.83L2.87-9.83L2.87-9.83Q2.47-9.31 1.89-9.09L1.89-9.09L1.89-9.09Q1.31-8.86 0.59-8.86L0.59-8.86L0.59-8.86Q-0.13-8.86-0.71-9.09L-0.71-9.09L-0.71-9.09Q-1.29-9.31-1.70-9.83L-1.70-9.83L-1.70-9.83Q-2.11-10.35-2.34-11.18L-2.34-11.18L-2.34-11.18Q-2.57-12.02-2.57-13.25L-2.57-13.25L-2.57-14.76L-2.57-14.76Q-2.57-15.99-2.34-16.81L-2.34-16.81L-2.34-16.81Q-2.12-17.64-1.71-18.15L-1.71-18.15L-1.71-18.15Q-1.30-18.65-0.72-18.87L-0.72-18.87L-0.72-18.87Q-0.15-19.09 0.57-19.09L0.57-19.09L0.57-19.09Q1.30-19.09 1.88-18.87L1.88-18.87L1.88-18.87Q2.46-18.65 2.87-18.15L2.87-18.15L2.87-18.15Q3.28-17.64 3.50-16.81L3.50-16.81L3.50-16.81Q3.72-15.99 3.72-14.76L3.72-14.76M2.45-13.05L2.45-14.97L2.45-14.97Q2.45-15.82 2.33-16.40L2.33-16.40L2.33-16.40Q2.21-16.99 1.97-17.36L1.97-17.36L1.97-17.36Q1.73-17.72 1.38-17.89L1.38-17.89L1.38-17.89Q1.03-18.05 0.57-18.05L0.57-18.05L0.57-18.05Q0.12-18.05-0.23-17.89L-0.23-17.89L-0.23-17.89Q-0.58-17.72-0.82-17.36L-0.82-17.36L-0.82-17.36Q-1.06-16.99-1.18-16.40L-1.18-16.40L-1.18-16.40Q-1.30-15.82-1.30-14.97L-1.30-14.97L-1.30-13.05L-1.30-13.05Q-1.30-12.21-1.18-11.61L-1.18-11.61L-1.18-11.61Q-1.06-11.02-0.81-10.63L-0.81-10.63L-0.81-10.63Q-0.57-10.25-0.22-10.07L-0.22-10.07L-0.22-10.07Q0.13-9.90 0.59-9.90L0.59-9.90L0.59-9.90Q1.05-9.90 1.40-10.07L1.40-10.07L1.40-10.07Q1.75-10.25 1.98-10.63L1.98-10.63L1.98-10.63Q2.22-11.02 2.34-11.61L2.34-11.61L2.34-11.61Q2.45-12.21 2.45-13.05L2.45-13.05ZM11.58-14.76L11.58-13.25L11.58-13.25Q11.58-12.02 11.36-11.18L11.36-11.18L11.36-11.18Q11.14-10.35 10.73-9.83L10.73-9.83L10.73-9.83Q10.33-9.31 9.75-9.09L9.75-9.09L9.75-9.09Q9.17-8.86 8.45-8.86L8.45-8.86L8.45-8.86Q7.73-8.86 7.15-9.09L7.15-9.09L7.15-9.09Q6.57-9.31 6.16-9.83L6.16-9.83L6.16-9.83Q5.75-10.35 5.52-11.18L5.52-11.18L5.52-11.18Q5.30-12.02 5.30-13.25L5.30-13.25L5.30-14.76L5.30-14.76Q5.30-15.99 5.52-16.81L5.52-16.81L5.52-16.81Q5.74-17.64 6.15-18.15L6.15-18.15L6.15-18.15Q6.56-18.65 7.14-18.87L7.14-18.87L7.14-18.87Q7.72-19.09 8.43-19.09L8.43-19.09L8.43-19.09Q9.16-19.09 9.74-18.87L9.74-18.87L9.74-18.87Q10.32-18.65 10.73-18.15L10.73-18.15L10.73-18.15Q11.14-17.64 11.36-16.81L11.36-16.81L11.36-16.81Q11.58-15.99 11.58-14.76L11.58-14.76M10.31-13.05L10.31-14.97L10.31-14.97Q10.31-15.82 10.19-16.40L10.19-16.40L10.19-16.40Q10.07-16.99 9.83-17.36L9.83-17.36L9.83-17.36Q9.60-17.72 9.24-17.89L9.24-17.89L9.24-17.89Q8.89-18.05 8.43-18.05L8.43-18.05L8.43-18.05Q7.98-18.05 7.63-17.89L7.63-17.89L7.63-17.89Q7.28-17.72 7.04-17.36L7.04-17.36L7.04-17.36Q6.81-16.99 6.68-16.40L6.68-16.40L6.68-16.40Q6.56-15.82 6.56-14.97L6.56-14.97L6.56-13.05L6.56-13.05Q6.56-12.21 6.68-11.61L6.68-11.61L6.68-11.61Q6.81-11.02 7.05-10.63L7.05-10.63L7.05-10.63Q7.29-10.25 7.64-10.07L7.64-10.07L7.64-10.07Q8.00-9.90 8.45-9.90L8.45-9.90L8.45-9.90Q8.91-9.90 9.26-10.07L9.26-10.07L9.26-10.07Q9.61-10.25 9.84-10.63L9.84-10.63L9.84-10.63Q10.08-11.02 10.20-11.61L10.20-11.61L10.20-11.61Q10.31-12.21 10.31-13.05L10.31-13.05Z" fill="#000" stroke="none"></path></g></g><g transform="translate(102.4,0)"><line stroke="#000" x1="0.5" x2="0.5" y2="-6"></line><g><path d="M-4.91-18.95L-4.91-12.34L-3.53-12.34L-3.53-11.31L-4.91-11.31L-4.91-9L-6.18-9L-6.18-11.31L-10.71-11.31L-10.71-12.06L-6.26-18.95L-4.91-18.95M-6.33-16.95L-9.28-12.34L-6.18-12.34L-6.18-17.22L-6.33-16.95ZM3.85-14.76L3.85-13.25L3.85-13.25Q3.85-12.02 3.63-11.18L3.63-11.18L3.63-11.18Q3.42-10.35 3.01-9.83L3.01-9.83L3.01-9.83Q2.60-9.31 2.02-9.09L2.02-9.09L2.02-9.09Q1.45-8.86 0.72-8.86L0.72-8.86L0.72-8.86Q0.00-8.86-0.58-9.09L-0.58-9.09L-0.58-9.09Q-1.16-9.31-1.57-9.83L-1.57-9.83L-1.57-9.83Q-1.98-10.35-2.20-11.18L-2.20-11.18L-2.20-11.18Q-2.43-12.02-2.43-13.25L-2.43-13.25L-2.43-14.76L-2.43-14.76Q-2.43-15.99-2.21-16.81L-2.21-16.81L-2.21-16.81Q-1.98-17.64-1.57-18.15L-1.57-18.15L-1.57-18.15Q-1.16-18.65-0.59-18.87L-0.59-18.87L-0.59-18.87Q-0.01-19.09 0.71-19.09L0.71-19.09L0.71-19.09Q1.43-19.09 2.01-18.87L2.01-18.87L2.01-18.87Q2.60-18.65 3.01-18.15L3.01-18.15L3.01-18.15Q3.42-17.64 3.63-16.81L3.63-16.81L3.63-16.81Q3.85-15.99 3.85-14.76L3.85-14.76M2.59-13.05L2.59-14.97L2.59-14.97Q2.59-15.82 2.47-16.40L2.47-16.40L2.47-16.40Q2.35-16.99 2.11-17.36L2.11-17.36L2.11-17.36Q1.87-17.72 1.52-17.89L1.52-17.89L1.52-17.89Q1.17-18.05 0.71-18.05L0.71-18.05L0.71-18.05Q0.26-18.05-0.09-17.89L-0.09-17.89L-0.09-17.89Q-0.45-17.72-0.68-17.36L-0.68-17.36L-0.68-17.36Q-0.92-16.99-1.04-16.40L-1.04-16.40L-1.04-16.40Q-1.16-15.82-1.16-14.97L-1.16-14.97L-1.16-13.05L-1.16-13.05Q-1.16-12.21-1.04-11.61L-1.04-11.61L-1.04-11.61Q-0.92-11.02-0.68-10.63L-0.68-10.63L-0.68-10.63Q-0.43-10.25-0.08-10.07L-0.08-10.07L-0.08-10.07Q0.27-9.90 0.72-9.90L0.72-9.90L0.72-9.90Q1.19-9.90 1.54-10.07L1.54-10.07L1.54-10.07Q1.88-10.25 2.12-10.63L2.12-10.63L2.12-10.63Q2.36-11.02 2.47-11.61L2.47-11.61L2.47-11.61Q2.59-12.21 2.59-13.05L2.59-13.05ZM11.71-14.76L11.71-13.25L11.71-13.25Q11.71-12.02 11.50-11.18L11.50-11.18L11.50-11.18Q11.28-10.35 10.87-9.83L10.87-9.83L10.87-9.83Q10.46-9.31 9.89-9.09L9.89-9.09L9.89-9.09Q9.31-8.86 8.58-8.86L8.58-8.86L8.58-8.86Q7.87-8.86 7.28-9.09L7.28-9.09L7.28-9.09Q6.70-9.31 6.29-9.83L6.29-9.83L6.29-9.83Q5.88-10.35 5.66-11.18L5.66-11.18L5.66-11.18Q5.43-12.02 5.43-13.25L5.43-13.25L5.43-14.76L5.43-14.76Q5.43-15.99 5.65-16.81L5.65-16.81L5.65-16.81Q5.88-17.64 6.29-18.15L6.29-18.15L6.29-18.15Q6.70-18.65 7.27-18.87L7.27-18.87L7.27-18.87Q7.85-19.09 8.57-19.09L8.57-19.09L8.57-19.09Q9.29-19.09 9.88-18.87L9.88-18.87L9.88-18.87Q10.46-18.65 10.87-18.15L10.87-18.15L10.87-18.15Q11.28-17.64 11.50-16.81L11.50-16.81L11.50-16.81Q11.71-15.99 11.71-14.76L11.71-14.76M10.45-13.05L10.45-14.97L10.45-14.97Q10.45-15.82 10.33-16.40L10.33-16.40L10.33-16.40Q10.21-16.99 9.97-17.36L9.97-17.36L9.97-17.36Q9.73-17.72 9.38-17.89L9.38-17.89L9.38-17.89Q9.03-18.05 8.57-18.05L8.57-18.05L8.57-18.05Q8.12-18.05 7.77-17.89L7.77-17.89L7.77-17.89Q7.41-17.72 7.18-17.36L7.18-17.36L7.18-17.36Q6.94-16.99 6.82-16.40L6.82-16.40L6.82-16.40Q6.70-15.82 6.70-14.97L6.70-14.97L6.70-13.05L6.70-13.05Q6.70-12.21 6.82-11.61L6.82-11.61L6.82-11.61Q6.94-11.02 7.19-10.63L7.19-10.63L7.19-10.63Q7.43-10.25 7.78-10.07L7.78-10.07L7.78-10.07Q8.13-9.90 8.58-9.90L8.58-9.90L8.58-9.90Q9.05-9.90 9.40-10.07L9.40-10.07L9.40-10.07Q9.75-10.25 9.98-10.63L9.98-10.63L9.98-10.63Q10.22-11.02 10.33-11.61L10.33-11.61L10.33-11.61Q10.45-12.21 10.45-13.05L10.45-13.05Z" fill="#000" stroke="none"></path></g></g><g transform="translate(153.6,0)"><line stroke="#000" x1="0.5" x2="0.5" y2="-6"></line><g><path d="M-5.67-18.96L-5.56-18.96L-5.56-17.89L-5.67-17.89L-5.67-17.89Q-6.58-17.89-7.22-17.61L-7.22-17.61L-7.22-17.61Q-7.85-17.34-8.26-16.89L-8.26-16.89L-8.26-16.89Q-8.67-16.43-8.89-15.84L-8.89-15.84L-8.89-15.84Q-9.10-15.25-9.15-14.63L-9.15-14.63L-9.15-14.63Q-8.74-15.10-8.19-15.31L-8.19-15.31L-8.19-15.31Q-7.64-15.53-7.01-15.53L-7.01-15.53L-7.01-15.53Q-6.26-15.53-5.72-15.24L-5.72-15.24L-5.72-15.24Q-5.19-14.96-4.84-14.50L-4.84-14.50L-4.84-14.50Q-4.49-14.04-4.32-13.45L-4.32-13.45L-4.32-13.45Q-4.16-12.86-4.16-12.25L-4.16-12.25L-4.16-12.25Q-4.16-11.54-4.35-10.92L-4.35-10.92L-4.35-10.92Q-4.55-10.30-4.94-9.84L-4.94-9.84L-4.94-9.84Q-5.33-9.39-5.91-9.13L-5.91-9.13L-5.91-9.13Q-6.48-8.86-7.24-8.86L-7.24-8.86L-7.24-8.86Q-8.04-8.86-8.65-9.20L-8.65-9.20L-8.65-9.20Q-9.25-9.53-9.65-10.08L-9.65-10.08L-9.65-10.08Q-10.05-10.62-10.25-11.30L-10.25-11.30L-10.25-11.30Q-10.44-11.99-10.44-12.68L-10.44-12.68L-10.44-13.27L-10.44-13.27Q-10.44-13.97-10.36-14.66L-10.36-14.66L-10.36-14.66Q-10.27-15.36-10.06-15.99L-10.06-15.99L-10.06-15.99Q-9.85-16.62-9.50-17.17L-9.50-17.17L-9.50-17.17Q-9.15-17.71-8.62-18.11L-8.62-18.11L-8.62-18.11Q-8.09-18.51-7.36-18.73L-7.36-18.73L-7.36-18.73Q-6.63-18.96-5.67-18.96L-5.67-18.96M-7.22-14.48L-7.22-14.48L-7.22-14.48Q-7.55-14.48-7.86-14.37L-7.86-14.37L-7.86-14.37Q-8.17-14.26-8.42-14.08L-8.42-14.08L-8.42-14.08Q-8.68-13.89-8.88-13.65L-8.88-13.65L-8.88-13.65Q-9.07-13.40-9.17-13.11L-9.17-13.11L-9.17-12.64L-9.17-12.64Q-9.17-11.97-9.01-11.46L-9.01-11.46L-9.01-11.46Q-8.85-10.96-8.58-10.61L-8.58-10.61L-8.58-10.61Q-8.31-10.26-7.96-10.09L-7.96-10.09L-7.96-10.09Q-7.61-9.91-7.24-9.91L-7.24-9.91L-7.24-9.91Q-6.80-9.91-6.46-10.08L-6.46-10.08L-6.46-10.08Q-6.12-10.24-5.88-10.55L-5.88-10.55L-5.88-10.55Q-5.65-10.85-5.52-11.27L-5.52-11.27L-5.52-11.27Q-5.40-11.69-5.40-12.19L-5.40-12.19L-5.40-12.19Q-5.40-12.63-5.51-13.04L-5.51-13.04L-5.51-13.04Q-5.63-13.46-5.85-13.77L-5.85-13.77L-5.85-13.77Q-6.08-14.09-6.42-14.28L-6.42-14.28L-6.42-14.28Q-6.76-14.48-7.22-14.48ZM3.58-14.76L3.58-13.25L3.58-13.25Q3.58-12.02 3.36-11.18L3.36-11.18L3.36-11.18Q3.15-10.35 2.74-9.83L2.74-9.83L2.74-9.83Q2.33-9.31 1.75-9.09L1.75-9.09L1.75-9.09Q1.18-8.86 0.45-8.86L0.45-8.86L0.45-8.86Q-0.27-8.86-0.85-9.09L-0.85-9.09L-0.85-9.09Q-1.43-9.31-1.84-9.83L-1.84-9.83L-1.84-9.83Q-2.25-10.35-2.47-11.18L-2.47-11.18L-2.47-11.18Q-2.70-12.02-2.70-13.25L-2.70-13.25L-2.70-14.76L-2.70-14.76Q-2.70-15.99-2.48-16.81L-2.48-16.81L-2.48-16.81Q-2.25-17.64-1.84-18.15L-1.84-18.15L-1.84-18.15Q-1.43-18.65-0.86-18.87L-0.86-18.87L-0.86-18.87Q-0.28-19.09 0.44-19.09L0.44-19.09L0.44-19.09Q1.16-19.09 1.74-18.87L1.74-18.87L1.74-18.87Q2.33-18.65 2.74-18.15L2.74-18.15L2.74-18.15Q3.15-17.64 3.36-16.81L3.36-16.81L3.36-16.81Q3.58-15.99 3.58-14.76L3.58-14.76M2.32-13.05L2.32-14.97L2.32-14.97Q2.32-15.82 2.20-16.40L2.20-16.40L2.20-16.40Q2.08-16.99 1.84-17.36L1.84-17.36L1.84-17.36Q1.60-17.72 1.25-17.89L1.25-17.89L1.25-17.89Q0.90-18.05 0.44-18.05L0.44-18.05L0.44-18.05Q-0.01-18.05-0.36-17.89L-0.36-17.89L-0.36-17.89Q-0.72-17.72-0.95-17.36L-0.95-17.36L-0.95-17.36Q-1.19-16.99-1.31-16.40L-1.31-16.40L-1.31-16.40Q-1.43-15.82-1.43-14.97L-1.43-14.97L-1.43-13.05L-1.43-13.05Q-1.43-12.21-1.31-11.61L-1.31-11.61L-1.31-11.61Q-1.19-11.02-0.95-10.63L-0.95-10.63L-0.95-10.63Q-0.70-10.25-0.35-10.07L-0.35-10.07L-0.35-10.07Q0.00-9.90 0.45-9.90L0.45-9.90L0.45-9.90Q0.92-9.90 1.27-10.07L1.27-10.07L1.27-10.07Q1.61-10.25 1.85-10.63L1.85-10.63L1.85-10.63Q2.09-11.02 2.20-11.61L2.20-11.61L2.20-11.61Q2.32-12.21 2.32-13.05L2.32-13.05ZM11.44-14.76L11.44-13.25L11.44-13.25Q11.44-12.02 11.23-11.18L11.23-11.18L11.23-11.18Q11.01-10.35 10.60-9.83L10.60-9.83L10.60-9.83Q10.19-9.31 9.62-9.09L9.62-9.09L9.62-9.09Q9.04-8.86 8.31-8.86L8.31-8.86L8.31-8.86Q7.60-8.86 7.01-9.09L7.01-9.09L7.01-9.09Q6.43-9.31 6.02-9.83L6.02-9.83L6.02-9.83Q5.61-10.35 5.39-11.18L5.39-11.18L5.39-11.18Q5.16-12.02 5.16-13.25L5.16-13.25L5.16-14.76L5.16-14.76Q5.16-15.99 5.38-16.81L5.38-16.81L5.38-16.81Q5.61-17.64 6.02-18.15L6.02-18.15L6.02-18.15Q6.43-18.65 7.00-18.87L7.00-18.87L7.00-18.87Q7.58-19.09 8.30-19.09L8.30-19.09L8.30-19.09Q9.02-19.09 9.61-18.87L9.61-18.87L9.61-18.87Q10.19-18.65 10.60-18.15L10.60-18.15L10.60-18.15Q11.01-17.64 11.23-16.81L11.23-16.81L11.23-16.81Q11.44-15.99 11.44-14.76L11.44-14.76M10.18-13.05L10.18-14.97L10.18-14.97Q10.18-15.82 10.06-16.40L10.06-16.40L10.06-16.40Q9.94-16.99 9.70-17.36L9.70-17.36L9.70-17.36Q9.46-17.72 9.11-17.89L9.11-17.89L9.11-17.89Q8.76-18.05 8.30-18.05L8.30-18.05L8.30-18.05Q7.85-18.05 7.50-17.89L7.50-17.89L7.50-17.89Q7.14-17.72 6.91-17.36L6.91-17.36L6.91-17.36Q6.67-16.99 6.55-16.40L6.55-16.40L6.55-16.40Q6.43-15.82 6.43-14.97L6.43-14.97L6.43-13.05L6.43-13.05Q6.43-12.21 6.55-11.61L6.55-11.61L6.55-11.61Q6.67-11.02 6.92-10.63L6.92-10.63L6.92-10.63Q7.16-10.25 7.51-10.07L7.51-10.07L7.51-10.07Q7.86-9.90 8.31-9.90L8.31-9.90L8.31-9.90Q8.78-9.90 9.13-10.07L9.13-10.07L9.13-10.07Q9.48-10.25 9.71-10.63L9.71-10.63L9.71-10.63Q9.95-11.02 10.06-11.61L10.06-11.61L10.06-11.61Q10.18-12.21 10.18-13.05L10.18-13.05Z" fill="#000" stroke="none"></path></g></g><g transform="translate(204.8,0)"><line stroke="#000" x1="0.5" x2="0.5" y2="-6"></line><g><path d="M-4.42-16.36L-4.42-16.36L-4.42-16.36Q-4.42-15.61-4.81-15.03L-4.81-15.03L-4.81-15.03Q-5.20-14.45-5.87-14.12L-5.87-14.12L-5.87-14.12Q-5.49-13.96-5.18-13.71L-5.18-13.71L-5.18-13.71Q-4.87-13.46-4.64-13.15L-4.64-13.15L-4.64-13.15Q-4.42-12.84-4.30-12.47L-4.30-12.47L-4.30-12.47Q-4.18-12.10-4.18-11.69L-4.18-11.69L-4.18-11.69Q-4.18-11.00-4.43-10.48L-4.43-10.48L-4.43-10.48Q-4.67-9.95-5.10-9.59L-5.10-9.59L-5.10-9.59Q-5.52-9.23-6.10-9.05L-6.10-9.05L-6.10-9.05Q-6.68-8.86-7.35-8.86L-7.35-8.86L-7.35-8.86Q-8.02-8.86-8.60-9.05L-8.60-9.05L-8.60-9.05Q-9.18-9.23-9.60-9.59L-9.60-9.59L-9.60-9.59Q-10.03-9.95-10.27-10.48L-10.27-10.48L-10.27-10.48Q-10.51-11.00-10.51-11.69L-10.51-11.69L-10.51-11.69Q-10.51-12.10-10.40-12.47L-10.40-12.47L-10.40-12.47Q-10.28-12.84-10.06-13.16L-10.06-13.16L-10.06-13.16Q-9.85-13.47-9.54-13.72L-9.54-13.72L-9.54-13.72Q-9.23-13.96-8.85-14.13L-8.85-14.13L-8.85-14.13Q-9.51-14.46-9.90-15.04L-9.90-15.04L-9.90-15.04Q-10.28-15.62-10.28-16.36L-10.28-16.36L-10.28-16.36Q-10.28-17.00-10.06-17.51L-10.06-17.51L-10.06-17.51Q-9.84-18.02-9.45-18.37L-9.45-18.37L-9.45-18.37Q-9.06-18.72-8.52-18.91L-8.52-18.91L-8.52-18.91Q-7.98-19.09-7.35-19.09L-7.35-19.09L-7.35-19.09Q-6.71-19.09-6.18-18.91L-6.18-18.91L-6.18-18.91Q-5.64-18.72-5.25-18.37L-5.25-18.37L-5.25-18.37Q-4.85-18.02-4.63-17.51L-4.63-17.51L-4.63-17.51Q-4.42-17.00-4.42-16.36M-5.45-11.71L-5.45-11.71L-5.45-11.71Q-5.45-12.13-5.59-12.48L-5.59-12.48L-5.59-12.48Q-5.73-12.83-5.98-13.08L-5.98-13.08L-5.98-13.08Q-6.23-13.33-6.59-13.46L-6.59-13.46L-6.59-13.46Q-6.94-13.60-7.36-13.60L-7.36-13.60L-7.36-13.60Q-7.79-13.60-8.14-13.46L-8.14-13.46L-8.14-13.46Q-8.49-13.33-8.74-13.08L-8.74-13.08L-8.74-13.08Q-8.98-12.83-9.11-12.48L-9.11-12.48L-9.11-12.48Q-9.25-12.13-9.25-11.71L-9.25-11.71L-9.25-11.71Q-9.25-11.28-9.12-10.95L-9.12-10.95L-9.12-10.95Q-8.99-10.61-8.74-10.38L-8.74-10.38L-8.74-10.38Q-8.50-10.14-8.14-10.02L-8.14-10.02L-8.14-10.02Q-7.79-9.90-7.35-9.90L-7.35-9.90L-7.35-9.90Q-6.91-9.90-6.56-10.02L-6.56-10.02L-6.56-10.02Q-6.21-10.14-5.96-10.38L-5.96-10.38L-5.96-10.38Q-5.71-10.61-5.58-10.95L-5.58-10.95L-5.58-10.95Q-5.45-11.28-5.45-11.71M-5.68-16.33L-5.68-16.33L-5.68-16.33Q-5.68-16.70-5.80-17.02L-5.80-17.02L-5.80-17.02Q-5.92-17.33-6.14-17.56L-6.14-17.56L-6.14-17.56Q-6.36-17.79-6.67-17.92L-6.67-17.92L-6.67-17.92Q-6.98-18.05-7.35-18.05L-7.35-18.05L-7.35-18.05Q-7.72-18.05-8.02-17.93L-8.02-17.93L-8.02-17.93Q-8.33-17.81-8.55-17.59L-8.55-17.59L-8.55-17.59Q-8.78-17.37-8.90-17.05L-8.90-17.05L-8.90-17.05Q-9.02-16.73-9.02-16.33L-9.02-16.33L-9.02-16.33Q-9.02-15.95-8.90-15.64L-8.90-15.64L-8.90-15.64Q-8.78-15.32-8.56-15.10L-8.56-15.10L-8.56-15.10Q-8.34-14.88-8.03-14.76L-8.03-14.76L-8.03-14.76Q-7.72-14.64-7.35-14.64L-7.35-14.64L-7.35-14.64Q-6.97-14.64-6.66-14.76L-6.66-14.76L-6.66-14.76Q-6.36-14.88-6.14-15.10L-6.14-15.10L-6.14-15.10Q-5.92-15.32-5.80-15.64L-5.80-15.64L-5.80-15.64Q-5.68-15.95-5.68-16.33ZM3.65-14.76L3.65-13.25L3.65-13.25Q3.65-12.02 3.43-11.18L3.43-11.18L3.43-11.18Q3.21-10.35 2.81-9.83L2.81-9.83L2.81-9.83Q2.40-9.31 1.82-9.09L1.82-9.09L1.82-9.09Q1.25-8.86 0.52-8.86L0.52-8.86L0.52-8.86Q-0.20-8.86-0.78-9.09L-0.78-9.09L-0.78-9.09Q-1.36-9.31-1.77-9.83L-1.77-9.83L-1.77-9.83Q-2.18-10.35-2.41-11.18L-2.41-11.18L-2.41-11.18Q-2.63-12.02-2.63-13.25L-2.63-13.25L-2.63-14.76L-2.63-14.76Q-2.63-15.99-2.41-16.81L-2.41-16.81L-2.41-16.81Q-2.19-17.64-1.78-18.15L-1.78-18.15L-1.78-18.15Q-1.37-18.65-0.79-18.87L-0.79-18.87L-0.79-18.87Q-0.21-19.09 0.51-19.09L0.51-19.09L0.51-19.09Q1.23-19.09 1.81-18.87L1.81-18.87L1.81-18.87Q2.39-18.65 2.80-18.15L2.80-18.15L2.80-18.15Q3.21-17.64 3.43-16.81L3.43-16.81L3.43-16.81Q3.65-15.99 3.65-14.76L3.65-14.76M2.39-13.05L2.39-14.97L2.39-14.97Q2.39-15.82 2.27-16.40L2.27-16.40L2.27-16.40Q2.15-16.99 1.91-17.36L1.91-17.36L1.91-17.36Q1.67-17.72 1.32-17.89L1.32-17.89L1.32-17.89Q0.96-18.05 0.51-18.05L0.51-18.05L0.51-18.05Q0.06-18.05-0.30-17.89L-0.30-17.89L-0.30-17.89Q-0.65-17.72-0.88-17.36L-0.88-17.36L-0.88-17.36Q-1.12-16.99-1.24-16.40L-1.24-16.40L-1.24-16.40Q-1.37-15.82-1.37-14.97L-1.37-14.97L-1.37-13.05L-1.37-13.05Q-1.37-12.21-1.24-11.61L-1.24-11.61L-1.24-11.61Q-1.12-11.02-0.88-10.63L-0.88-10.63L-0.88-10.63Q-0.63-10.25-0.28-10.07L-0.28-10.07L-0.28-10.07Q0.07-9.90 0.52-9.90L0.52-9.90L0.52-9.90Q0.99-9.90 1.33-10.07L1.33-10.07L1.33-10.07Q1.68-10.25 1.92-10.63L1.92-10.63L1.92-10.63Q2.15-11.02 2.27-11.61L2.27-11.61L2.27-11.61Q2.39-12.21 2.39-13.05L2.39-13.05ZM11.51-14.76L11.51-13.25L11.51-13.25Q11.51-12.02 11.29-11.18L11.29-11.18L11.29-11.18Q11.08-10.35 10.67-9.83L10.67-9.83L10.67-9.83Q10.26-9.31 9.68-9.09L9.68-9.09L9.68-9.09Q9.11-8.86 8.38-8.86L8.38-8.86L8.38-8.86Q7.66-8.86 7.08-9.09L7.08-9.09L7.08-9.09Q6.50-9.31 6.09-9.83L6.09-9.83L6.09-9.83Q5.68-10.35 5.46-11.18L5.46-11.18L5.46-11.18Q5.23-12.02 5.23-13.25L5.23-13.25L5.23-14.76L5.23-14.76Q5.23-15.99 5.45-16.81L5.45-16.81L5.45-16.81Q5.67-17.64 6.08-18.15L6.08-18.15L6.08-18.15Q6.50-18.65 7.07-18.87L7.07-18.87L7.07-18.87Q7.65-19.09 8.37-19.09L8.37-19.09L8.37-19.09Q9.09-19.09 9.67-18.87L9.67-18.87L9.67-18.87Q10.25-18.65 10.67-18.15L10.67-18.15L10.67-18.15Q11.08-17.64 11.29-16.81L11.29-16.81L11.29-16.81Q11.51-15.99 11.51-14.76L11.51-14.76M10.25-13.05L10.25-14.97L10.25-14.97Q10.25-15.82 10.13-16.40L10.13-16.40L10.13-16.40Q10.01-16.99 9.77-17.36L9.77-17.36L9.77-17.36Q9.53-17.72 9.18-17.89L9.18-17.89L9.18-17.89Q8.83-18.05 8.37-18.05L8.37-18.05L8.37-18.05Q7.92-18.05 7.56-17.89L7.56-17.89L7.56-17.89Q7.21-17.72 6.98-17.36L6.98-17.36L6.98-17.36Q6.74-16.99 6.62-16.40L6.62-16.40L6.62-16.40Q6.50-15.82 6.50-14.97L6.50-14.97L6.50-13.05L6.50-13.05Q6.50-12.21 6.62-11.61L6.62-11.61L6.62-11.61Q6.74-11.02 6.98-10.63L6.98-10.63L6.98-10.63Q7.23-10.25 7.58-10.07L7.58-10.07L7.58-10.07Q7.93-9.90 8.38-9.90L8.38-9.90L8.38-9.90Q8.85-9.90 9.20-10.07L9.20-10.07L9.20-10.07Q9.54-10.25 9.78-10.63L9.78-10.63L9.78-10.63Q10.02-11.02 10.13-11.61L10.13-11.61L10.13-11.61Q10.25-12.21 10.25-13.05L10.25-13.05Z" fill="#000" stroke="none"></path></g></g><g transform="translate(256.0,0)"><line stroke="#000" x1="0.5" x2="0.5" y2="-6"></line><g><path d="M-10.42-19.00L-10.42-9L-11.70-9L-11.70-17.43L-14.25-16.49L-14.25-17.64L-10.62-19.00L-10.42-19.00ZM-0.48-14.76L-0.48-13.25L-0.48-13.25Q-0.48-12.02-0.70-11.18L-0.70-11.18L-0.70-11.18Q-0.92-10.35-1.32-9.83L-1.32-9.83L-1.32-9.83Q-1.73-9.31-2.31-9.09L-2.31-9.09L-2.31-9.09Q-2.88-8.86-3.61-8.86L-3.61-8.86L-3.61-8.86Q-4.33-8.86-4.91-9.09L-4.91-9.09L-4.91-9.09Q-5.49-9.31-5.90-9.83L-5.90-9.83L-5.90-9.83Q-6.31-10.35-6.53-11.18L-6.53-11.18L-6.53-11.18Q-6.76-12.02-6.76-13.25L-6.76-13.25L-6.76-14.76L-6.76-14.76Q-6.76-15.99-6.54-16.81L-6.54-16.81L-6.54-16.81Q-6.32-17.64-5.91-18.15L-5.91-18.15L-5.91-18.15Q-5.50-18.65-4.92-18.87L-4.92-18.87L-4.92-18.87Q-4.34-19.09-3.62-19.09L-3.62-19.09L-3.62-19.09Q-2.90-19.09-2.32-18.87L-2.32-18.87L-2.32-18.87Q-1.74-18.65-1.33-18.15L-1.33-18.15L-1.33-18.15Q-0.92-17.64-0.70-16.81L-0.70-16.81L-0.70-16.81Q-0.48-15.99-0.48-14.76L-0.48-14.76M-1.74-13.05L-1.74-14.97L-1.74-14.97Q-1.74-15.82-1.86-16.40L-1.86-16.40L-1.86-16.40Q-1.98-16.99-2.22-17.36L-2.22-17.36L-2.22-17.36Q-2.46-17.72-2.81-17.89L-2.81-17.89L-2.81-17.89Q-3.16-18.05-3.62-18.05L-3.62-18.05L-3.62-18.05Q-4.07-18.05-4.43-17.89L-4.43-17.89L-4.43-17.89Q-4.78-17.72-5.01-17.36L-5.01-17.36L-5.01-17.36Q-5.25-16.99-5.37-16.40L-5.37-16.40L-5.37-16.40Q-5.50-15.82-5.50-14.97L-5.50-14.97L-5.50-13.05L-5.50-13.05Q-5.50-12.21-5.37-11.61L-5.37-11.61L-5.37-11.61Q-5.25-11.02-5.01-10.63L-5.01-10.63L-5.01-10.63Q-4.76-10.25-4.41-10.07L-4.41-10.07L-4.41-10.07Q-4.06-9.90-3.61-9.90L-3.61-9.90L-3.61-9.90Q-3.14-9.90-2.79-10.07L-2.79-10.07L-2.79-10.07Q-2.45-10.25-2.21-10.63L-2.21-10.63L-2.21-10.63Q-1.97-11.02-1.86-11.61L-1.86-11.61L-1.86-11.61Q-1.74-12.21-1.74-13.05L-1.74-13.05ZM7.38-14.76L7.38-13.25L7.38-13.25Q7.38-12.02 7.17-11.18L7.17-11.18L7.17-11.18Q6.95-10.35 6.54-9.83L6.54-9.83L6.54-9.83Q6.13-9.31 5.56-9.09L5.56-9.09L5.56-9.09Q4.98-8.86 4.25-8.86L4.25-8.86L4.25-8.86Q3.54-8.86 2.95-9.09L2.95-9.09L2.95-9.09Q2.37-9.31 1.96-9.83L1.96-9.83L1.96-9.83Q1.55-10.35 1.33-11.18L1.33-11.18L1.33-11.18Q1.10-12.02 1.10-13.25L1.10-13.25L1.10-14.76L1.10-14.76Q1.10-15.99 1.32-16.81L1.32-16.81L1.32-16.81Q1.55-17.64 1.96-18.15L1.96-18.15L1.96-18.15Q2.37-18.65 2.94-18.87L2.94-18.87L2.94-18.87Q3.52-19.09 4.24-19.09L4.24-19.09L4.24-19.09Q4.96-19.09 5.54-18.87L5.54-18.87L5.54-18.87Q6.13-18.65 6.54-18.15L6.54-18.15L6.54-18.15Q6.95-17.64 7.17-16.81L7.17-16.81L7.17-16.81Q7.38-15.99 7.38-14.76L7.38-14.76M6.12-13.05L6.12-14.97L6.12-14.97Q6.12-15.82 6.00-16.40L6.00-16.40L6.00-16.40Q5.88-16.99 5.64-17.36L5.64-17.36L5.64-17.36Q5.40-17.72 5.05-17.89L5.05-17.89L5.05-17.89Q4.70-18.05 4.24-18.05L4.24-18.05L4.24-18.05Q3.79-18.05 3.44-17.89L3.44-17.89L3.44-17.89Q3.08-17.72 2.85-17.36L2.85-17.36L2.85-17.36Q2.61-16.99 2.49-16.40L2.49-16.40L2.49-16.40Q2.37-15.82 2.37-14.97L2.37-14.97L2.37-13.05L2.37-13.05Q2.37-12.21 2.49-11.61L2.49-11.61L2.49-11.61Q2.61-11.02 2.85-10.63L2.85-10.63L2.85-10.63Q3.10-10.25 3.45-10.07L3.45-10.07L3.45-10.07Q3.80-9.90 4.25-9.90L4.25-9.90L4.25-9.90Q4.72-9.90 5.07-10.07L5.07-10.07L5.07-10.07Q5.42-10.25 5.65-10.63L5.65-10.63L5.65-10.63Q5.89-11.02 6.00-11.61L6.00-11.61L6.00-11.61Q6.12-12.21 6.12-13.05L6.12-13.05ZM15.25-14.76L15.25-13.25L15.25-13.25Q15.25-12.02 15.03-11.18L15.03-11.18L15.03-11.18Q14.81-10.35 14.40-9.83L14.40-9.83L14.40-9.83Q13.99-9.31 13.42-9.09L13.42-9.09L13.42-9.09Q12.84-8.86 12.11-8.86L12.11-8.86L12.11-8.86Q11.40-8.86 10.82-9.09L10.82-9.09L10.82-9.09Q10.23-9.31 9.82-9.83L9.82-9.83L9.82-9.83Q9.41-10.35 9.19-11.18L9.19-11.18L9.19-11.18Q8.96-12.02 8.96-13.25L8.96-13.25L8.96-14.76L8.96-14.76Q8.96-15.99 9.19-16.81L9.19-16.81L9.19-16.81Q9.41-17.64 9.82-18.15L9.82-18.15L9.82-18.15Q10.23-18.65 10.81-18.87L10.81-18.87L10.81-18.87Q11.38-19.09 12.10-19.09L12.10-19.09L12.10-19.09Q12.83-19.09 13.41-18.87L13.41-18.87L13.41-18.87Q13.99-18.65 14.40-18.15L14.40-18.15L14.40-18.15Q14.81-17.64 15.03-16.81L15.03-16.81L15.03-16.81Q15.25-15.99 15.25-14.76L15.25-14.76M13.98-13.05L13.98-14.97L13.98-14.97Q13.98-15.82 13.86-16.40L13.86-16.40L13.86-16.40Q13.74-16.99 13.50-17.36L13.50-17.36L13.50-17.36Q13.26-17.72 12.91-17.89L12.91-17.89L12.91-17.89Q12.56-18.05 12.10-18.05L12.10-18.05L12.10-18.05Q11.65-18.05 11.30-17.89L11.30-17.89L11.30-17.89Q10.95-17.72 10.71-17.36L10.71-17.36L10.71-17.36Q10.47-16.99 10.35-16.40L10.35-16.40L10.35-16.40Q10.23-15.82 10.23-14.97L10.23-14.97L10.23-13.05L10.23-13.05Q10.23-12.21 10.35-11.61L10.35-11.61L10.35-11.61Q10.47-11.02 10.72-10.63L10.72-10.63L10.72-10.63Q10.96-10.25 11.31-10.07L11.31-10.07L11.31-10.07Q11.66-9.90 12.11-9.90L12.11-9.90L12.11-9.90Q12.58-9.90 12.93-10.07L12.93-10.07L12.93-10.07Q13.28-10.25 13.51-10.63L13.51-10.63L13.51-10.63Q13.75-11.02 13.86-11.61L13.86-11.61L13.86-11.61Q13.98-12.21 13.98-13.05L13.98-13.05Z" fill="#000" stroke="none"></path></g></g></g><g transform="translate(0,198.0)"><g><path d="M0.5,6 V0.5 H256.5 V6" fill="none" stroke-width="1" stroke="#000"></path><g transform="translate(0.0,0)"><line stroke="#000" x1="0.5" x2="0.5" y2="6"></line><g><path d="M3.64 13.18L3.64 14.69L3.64 14.69Q3.64 15.92 3.42 16.76L3.42 16.76L3.42 16.76Q3.20 17.59 2.80 18.11L2.80 18.11L2.80 18.11Q2.39 18.63 1.81 18.85L1.81 18.85L1.81 18.85Q1.23 19.08 0.51 19.08L0.51 19.08L0.51 19.08Q-0.21 19.08-0.79 18.85L-0.79 18.85L-0.79 18.85Q-1.37 18.63-1.78 18.11L-1.78 18.11L-1.78 18.11Q-2.19 17.59-2.42 16.76L-2.42 16.76L-2.42 16.76Q-2.64 15.92-2.64 14.69L-2.64 14.69L-2.64 13.18L-2.64 13.18Q-2.64 11.95-2.42 11.13L-2.42 11.13L-2.42 11.13Q-2.20 10.30-1.79 9.79L-1.79 9.79L-1.79 9.79Q-1.38 9.29-0.80 9.07L-0.80 9.07L-0.80 9.07Q-0.22 8.85 0.50 8.85L0.50 8.85L0.50 8.85Q1.22 8.85 1.80 9.07L1.80 9.07L1.80 9.07Q2.38 9.29 2.79 9.79L2.79 9.79L2.79 9.79Q3.20 10.30 3.42 11.13L3.42 11.13L3.42 11.13Q3.64 11.95 3.64 13.18L3.64 13.18M2.38 14.89L2.38 12.97L2.38 12.97Q2.38 12.12 2.26 11.54L2.26 11.54L2.26 11.54Q2.14 10.95 1.90 10.58L1.90 10.58L1.90 10.58Q1.66 10.22 1.31 10.05L1.31 10.05L1.31 10.05Q0.95 9.89 0.50 9.89L0.50 9.89L0.50 9.89Q0.05 9.89-0.31 10.05L-0.31 10.05L-0.31 10.05Q-0.66 10.22-0.89 10.58L-0.89 10.58L-0.89 10.58Q-1.13 10.95-1.25 11.54L-1.25 11.54L-1.25 11.54Q-1.38 12.12-1.38 12.97L-1.38 12.97L-1.38 14.89L-1.38 14.89Q-1.38 15.73-1.25 16.33L-1.25 16.33L-1.25 16.33Q-1.13 16.92-0.89 17.31L-0.89 17.31L-0.89 17.31Q-0.65 17.69-0.29 17.87L-0.29 17.87L-0.29 17.87Q0.06 18.04 0.51 18.04L0.51 18.04L0.51 18.04Q0.98 18.04 1.32 17.87L1.32 17.87L1.32 17.87Q1.67 17.69 1.91 17.31L1.91 17.31L1.91 17.31Q2.14 16.92 2.26 16.33L2.26 16.33L2.26 16.33Q2.38 15.73 2.38 14.89L2.38 14.89Z" fill="#000" stroke="none"></path></g></g><g transform="translate(51.2,0)"><line stroke="#000" x1="0.5" x2="0.5" y2="6"></line><g><path d="M-3.86 17.91L-3.86 18.94L-10.39 18.94L-10.39 18.03L-7.13 14.41L-7.13 14.41Q-6.67 13.91-6.38 13.53L-6.38 13.53L-6.38 13.53Q-6.08 13.14-5.91 12.83L-5.91 12.83L-5.91 12.83Q-5.73 12.51-5.66 12.23L-5.66 12.23L-5.66 12.23Q-5.59 11.95-5.59 11.67L-5.59 11.67L-5.59 11.67Q-5.59 11.30-5.71 10.97L-5.71 10.97L-5.71 10.97Q-5.83 10.65-6.05 10.41L-6.05 10.41L-6.05 10.41Q-6.26 10.17-6.59 10.03L-6.59 10.03L-6.59 10.03Q-6.91 9.89-7.32 9.89L-7.32 9.89L-7.32 9.89Q-7.83 9.89-8.20 10.04L-8.20 10.04L-8.20 10.04Q-8.57 10.19-8.82 10.46L-8.82 10.46L-8.82 10.46Q-9.07 10.72-9.19 11.10L-9.19 11.10L-9.19 11.10Q-9.31 11.47-9.31 11.92L-9.31 11.92L-10.58 11.92L-10.58 11.92Q-10.58 11.29-10.37 10.73L-10.37 10.73L-10.37 10.73Q-10.16 10.17-9.75 9.75L-9.75 9.75L-9.75 9.75Q-9.34 9.34-8.73 9.09L-8.73 9.09L-8.73 9.09Q-8.12 8.85-7.32 8.85L-7.32 8.85L-7.32 8.85Q-6.62 8.85-6.06 9.04L-6.06 9.04L-6.06 9.04Q-5.51 9.23-5.12 9.59L-5.12 9.59L-5.12 9.59Q-4.73 9.94-4.53 10.43L-4.53 10.43L-4.53 10.43Q-4.32 10.92-4.32 11.52L-4.32 11.52L-4.32 11.52Q-4.32 11.95-4.47 12.40L-4.47 12.40L-4.47 12.40Q-4.62 12.84-4.88 13.28L-4.88 13.28L-4.88 13.28Q-5.13 13.72-5.47 14.16L-5.47 14.16L-5.47 14.16Q-5.81 14.59-6.19 15.01L-6.19 15.01L-8.86 17.91L-3.86 17.91ZM3.72 13.18L3.72 14.69L3.72 14.69Q3.72 15.92 3.50 16.76L3.50 16.76L3.50 16.76Q3.28 17.59 2.87 18.11L2.87 18.11L2.87 18.11Q2.47 18.63 1.89 18.85L1.89 18.85L1.89 18.85Q1.31 19.08 0.59 19.08L0.59 19.08L0.59 19.08Q-0.13 19.08-0.71 18.85L-0.71 18.85L-0.71 18.85Q-1.29 18.63-1.70 18.11L-1.70 18.11L-1.70 18.11Q-2.11 17.59-2.34 16.76L-2.34 16.76L-2.34 16.76Q-2.57 15.92-2.57 14.69L-2.57 14.69L-2.57 13.18L-2.57 13.18Q-2.57 11.95-2.34 11.13L-2.34 11.13L-2.34 11.13Q-2.12 10.30-1.71 9.79L-1.71 9.79L-1.71 9.79Q-1.30 9.29-0.72 9.07L-0.72 9.07L-0.72 9.07Q-0.15 8.85 0.57 8.85L0.57 8.85L0.57 8.85Q1.30 8.85 1.88 9.07L1.88 9.07L1.88 9.07Q2.46 9.29 2.87 9.79L2.87 9.79L2.87 9.79Q3.28 10.30 3.50 11.13L3.50 11.13L3.50 11.13Q3.72 11.95 3.72 13.18L3.72 13.18M2.45 14.89L2.45 12.97L2.45 12.97Q2.45 12.12 2.33 11.54L2.33 11.54L2.33 11.54Q2.21 10.95 1.97 10.58L1.97 10.58L1.97 10.58Q1.73 10.22 1.38 10.05L1.38 10.05L1.38 10.05Q1.03 9.89 0.57 9.89L0.57 9.89L0.57 9.89Q0.12 9.89-0.23 10.05L-0.23 10.05L-0.23 10.05Q-0.58 10.22-0.82 10.58L-0.82 10.58L-0.82 10.58Q-1.06 10.95-1.18 11.54L-1.18 11.54L-1.18 11.54Q-1.30 12.12-1.30 12.97L-1.30 12.97L-1.30 14.89L-1.30 14.89Q-1.30 15.73-1.18 16.33L-1.18 16.33L-1.18 16.33Q-1.06 16.92-0.81 17.31L-0.81 17.31L-0.81 17.31Q-0.57 17.69-0.22 17.87L-0.22 17.87L-0.22 17.87Q0.13 18.04 0.59 18.04L0.59 18.04L0.59 18.04Q1.05 18.04 1.40 17.87L1.40 17.87L1.40 17.87Q1.75 17.69 1.98 17.31L1.98 17.31L1.98 17.31Q2.22 16.92 2.34 16.33L2.34 16.33L2.34 16.33Q2.45 15.73 2.45 14.89L2.45 14.89ZM11.58 13.18L11.58 14.69L11.58 14.69Q11.58 15.92 11.36 16.76L11.36 16.76L11.36 16.76Q11.14 17.59 10.73 18.11L10.73 18.11L10.73 18.11Q10.33 18.63 9.75 18.85L9.75 18.85L9.75 18.85Q9.17 19.08 8.45 19.08L8.45 19.08L8.45 19.08Q7.73 19.08 7.15 18.85L7.15 18.85L7.15 18.85Q6.57 18.63 6.16 18.11L6.16 18.11L6.16 18.11Q5.75 17.59 5.52 16.76L5.52 16.76L5.52 16.76Q5.30 15.92 5.30 14.69L5.30 14.69L5.30 13.18L5.30 13.18Q5.30 11.95 5.52 11.13L5.52 11.13L5.52 11.13Q5.74 10.30 6.15 9.79L6.15 9.79L6.15 9.79Q6.56 9.29 7.14 9.07L7.14 9.07L7.14 9.07Q7.72 8.85 8.43 8.85L8.43 8.85L8.43 8.85Q9.16 8.85 9.74 9.07L9.74 9.07L9.74 9.07Q10.32 9.29 10.73 9.79L10.73 9.79L10.73 9.79Q11.14 10.30 11.36 11.13L11.36 11.13L11.36 11.13Q11.58 11.95 11.58 13.18L11.58 13.18M10.31 14.89L10.31 12.97L10.31 12.97Q10.31 12.12 10.19 11.54L10.19 11.54L10.19 11.54Q10.07 10.95 9.83 10.58L9.83 10.58L9.83 10.58Q9.60 10.22 9.24 10.05L9.24 10.05L9.24 10.05Q8.89 9.89 8.43 9.89L8.43 9.89L8.43 9.89Q7.98 9.89 7.63 10.05L7.63 10.05L7.63 10.05Q7.28 10.22 7.04 10.58L7.04 10.58L7.04 10.58Q6.81 10.95 6.68 11.54L6.68 11.54L6.68 11.54Q6.56 12.12 6.56 12.97L6.56 12.97L6.56 14.89L6.56 14.89Q6.56 15.73 6.68 16.33L6.68 16.33L6.68 16.33Q6.81 16.92 7.05 17.31L7.05 17.31L7.05 17.31Q7.29 17.69 7.64 17.87L7.64 17.87L7.64 17.87Q8.00 18.04 8.45 18.04L8.45 18.04L8.45 18.04Q8.91 18.04 9.26 17.87L9.26 17.87L9.26 17.87Q9.61 17.69 9.84 17.31L9.84 17.31L9.84 17.31Q10.08 16.92 10.20 16.33L10.20 16.33L10.20 16.33Q10.31 15.73 10.31 14.89L10.31 14.89Z" fill="#000" stroke="none"></path></g></g><g transform="translate(102.4,0)"><line stroke="#000" x1="0.5" x2="0.5" y2="6"></line><g><path d="M-4.91 8.99L-4.91 15.60L-3.53 15.60L-3.53 16.63L-4.91 16.63L-4.91 18.94L-6.18 18.94L-6.18 16.63L-10.71 16.63L-10.71 15.88L-6.26 8.99L-4.91 8.99M-6.33 10.99L-9.28 15.60L-6.18 15.60L-6.18 10.72L-6.33 10.99ZM3.85 13.18L3.85 14.69L3.85 14.69Q3.85 15.92 3.63 16.76L3.63 16.76L3.63 16.76Q3.42 17.59 3.01 18.11L3.01 18.11L3.01 18.11Q2.60 18.63 2.02 18.85L2.02 18.85L2.02 18.85Q1.45 19.08 0.72 19.08L0.72 19.08L0.72 19.08Q0.00 19.08-0.58 18.85L-0.58 18.85L-0.58 18.85Q-1.16 18.63-1.57 18.11L-1.57 18.11L-1.57 18.11Q-1.98 17.59-2.20 16.76L-2.20 16.76L-2.20 16.76Q-2.43 15.92-2.43 14.69L-2.43 14.69L-2.43 13.18L-2.43 13.18Q-2.43 11.95-2.21 11.13L-2.21 11.13L-2.21 11.13Q-1.98 10.30-1.57 9.79L-1.57 9.79L-1.57 9.79Q-1.16 9.29-0.59 9.07L-0.59 9.07L-0.59 9.07Q-0.01 8.85 0.71 8.85L0.71 8.85L0.71 8.85Q1.43 8.85 2.01 9.07L2.01 9.07L2.01 9.07Q2.60 9.29 3.01 9.79L3.01 9.79L3.01 9.79Q3.42 10.30 3.63 11.13L3.63 11.13L3.63 11.13Q3.85 11.95 3.85 13.18L3.85 13.18M2.59 14.89L2.59 12.97L2.59 12.97Q2.59 12.12 2.47 11.54L2.47 11.54L2.47 11.54Q2.35 10.95 2.11 10.58L2.11 10.58L2.11 10.58Q1.87 10.22 1.52 10.05L1.52 10.05L1.52 10.05Q1.17 9.89 0.71 9.89L0.71 9.89L0.71 9.89Q0.26 9.89-0.09 10.05L-0.09 10.05L-0.09 10.05Q-0.45 10.22-0.68 10.58L-0.68 10.58L-0.68 10.58Q-0.92 10.95-1.04 11.54L-1.04 11.54L-1.04 11.54Q-1.16 12.12-1.16 12.97L-1.16 12.97L-1.16 14.89L-1.16 14.89Q-1.16 15.73-1.04 16.33L-1.04 16.33L-1.04 16.33Q-0.92 16.92-0.68 17.31L-0.68 17.31L-0.68 17.31Q-0.43 17.69-0.08 17.87L-0.08 17.87L-0.08 17.87Q0.27 18.04 0.72 18.04L0.72 18.04L0.72 18.04Q1.19 18.04 1.54 17.87L1.54 17.87L1.54 17.87Q1.88 17.69 2.12 17.31L2.12 17.31L2.12 17.31Q2.36 16.92 2.47 16.33L2.47 16.33L2.47 16.33Q2.59 15.73 2.59 14.89L2.59 14.89ZM11.71 13.18L11.71 14.69L11.71 14.69Q11.71 15.92 11.50 16.76L11.50 16.76L11.50 16.76Q11.28 17.59 10.87 18.11L10.87 18.11L10.87 18.11Q10.46 18.63 9.89 18.85L9.89 18.85L9.89 18.85Q9.31 19.08 8.58 19.08L8.58 19.08L8.58 19.08Q7.87 19.08 7.28 18.85L7.28 18.85L7.28 18.85Q6.70 18.63 6.29 18.11L6.29 18.11L6.29 18.11Q5.88 17.59 5.66 16.76L5.66 16.76L5.66 16.76Q5.43 15.92 5.43 14.69L5.43 14.69L5.43 13.18L5.43 13.18Q5.43 11.95 5.65 11.13L5.65 11.13L5.65 11.13Q5.88 10.30 6.29 9.79L6.29 9.79L6.29 9.79Q6.70 9.29 7.27 9.07L7.27 9.07L7.27 9.07Q7.85 8.85 8.57 8.85L8.57 8.85L8.57 8.85Q9.29 8.85 9.88 9.07L9.88 9.07L9.88 9.07Q10.46 9.29 10.87 9.79L10.87 9.79L10.87 9.79Q11.28 10.30 11.50 11.13L11.50 11.13L11.50 11.13Q11.71 11.95 11.71 13.18L11.71 13.18M10.45 14.89L10.45 12.97L10.45 12.97Q10.45 12.12 10.33 11.54L10.33 11.54L10.33 11.54Q10.21 10.95 9.97 10.58L9.97 10.58L9.97 10.58Q9.73 10.22 9.38 10.05L9.38 10.05L9.38 10.05Q9.03 9.89 8.57 9.89L8.57 9.89L8.57 9.89Q8.12 9.89 7.77 10.05L7.77 10.05L7.77 10.05Q7.41 10.22 7.18 10.58L7.18 10.58L7.18 10.58Q6.94 10.95 6.82 11.54L6.82 11.54L6.82 11.54Q6.70 12.12 6.70 12.97L6.70 12.97L6.70 14.89L6.70 14.89Q6.70 15.73 6.82 16.33L6.82 16.33L6.82 16.33Q6.94 16.92 7.19 17.31L7.19 17.31L7.19 17.31Q7.43 17.69 7.78 17.87L7.78 17.87L7.78 17.87Q8.13 18.04 8.58 18.04L8.58 18.04L8.58 18.04Q9.05 18.04 9.40 17.87L9.40 17.87L9.40 17.87Q9.75 17.69 9.98 17.31L9.98 17.31L9.98 17.31Q10.22 16.92 10.33 16.33L10.33 16.33L10.33 16.33Q10.45 15.73 10.45 14.89L10.45 14.89Z" fill="#000" stroke="none"></path></g></g><g transform="translate(153.6,0)"><line stroke="#000" x1="0.5" x2="0.5" y2="6"></line><g><path d="M-5.67 8.98L-5.56 8.98L-5.56 10.05L-5.67 10.05L-5.67 10.05Q-6.58 10.05-7.22 10.33L-7.22 10.33L-7.22 10.33Q-7.85 10.60-8.26 11.05L-8.26 11.05L-8.26 11.05Q-8.67 11.51-8.89 12.10L-8.89 12.10L-8.89 12.10Q-9.10 12.69-9.15 13.31L-9.15 13.31L-9.15 13.31Q-8.74 12.84-8.19 12.63L-8.19 12.63L-8.19 12.63Q-7.64 12.41-7.01 12.41L-7.01 12.41L-7.01 12.41Q-6.26 12.41-5.72 12.70L-5.72 12.70L-5.72 12.70Q-5.19 12.98-4.84 13.44L-4.84 13.44L-4.84 13.44Q-4.49 13.90-4.32 14.49L-4.32 14.49L-4.32 14.49Q-4.16 15.08-4.16 15.69L-4.16 15.69L-4.16 15.69Q-4.16 16.40-4.35 17.02L-4.35 17.02L-4.35 17.02Q-4.55 17.64-4.94 18.10L-4.94 18.10L-4.94 18.10Q-5.33 18.55-5.91 18.81L-5.91 18.81L-5.91 18.81Q-6.48 19.08-7.24 19.08L-7.24 19.08L-7.24 19.08Q-8.04 19.08-8.65 18.74L-8.65 18.74L-8.65 18.74Q-9.25 18.41-9.65 17.86L-9.65 17.86L-9.65 17.86Q-10.05 17.32-10.25 16.64L-10.25 16.64L-10.25 16.64Q-10.44 15.95-10.44 15.26L-10.44 15.26L-10.44 14.67L-10.44 14.67Q-10.44 13.97-10.36 13.28L-10.36 13.28L-10.36 13.28Q-10.27 12.58-10.06 11.95L-10.06 11.95L-10.06 11.95Q-9.85 11.32-9.50 10.77L-9.50 10.77L-9.50 10.77Q-9.15 10.23-8.62 9.83L-8.62 9.83L-8.62 9.83Q-8.09 9.43-7.36 9.21L-7.36 9.21L-7.36 9.21Q-6.63 8.98-5.67 8.98L-5.67 8.98M-7.22 13.46L-7.22 13.46L-7.22 13.46Q-7.55 13.46-7.86 13.57L-7.86 13.57L-7.86 13.57Q-8.17 13.68-8.42 13.86L-8.42 13.86L-8.42 13.86Q-8.68 14.05-8.88 14.29L-8.88 14.29L-8.88 14.29Q-9.07 14.54-9.17 14.83L-9.17 14.83L-9.17 15.30L-9.17 15.30Q-9.17 15.97-9.01 16.48L-9.01 16.48L-9.01 16.48Q-8.85 16.98-8.58 17.33L-8.58 17.33L-8.58 17.33Q-8.31 17.68-7.96 17.85L-7.96 17.85L-7.96 17.85Q-7.61 18.03-7.24 18.03L-7.24 18.03L-7.24 18.03Q-6.80 18.03-6.46 17.86L-6.46 17.86L-6.46 17.86Q-6.12 17.70-5.88 17.39L-5.88 17.39L-5.88 17.39Q-5.65 17.09-5.52 16.67L-5.52 16.67L-5.52 16.67Q-5.40 16.25-5.40 15.75L-5.40 15.75L-5.40 15.75Q-5.40 15.31-5.51 14.90L-5.51 14.90L-5.51 14.90Q-5.63 14.48-5.85 14.17L-5.85 14.17L-5.85 14.17Q-6.08 13.85-6.42 13.66L-6.42 13.66L-6.42 13.66Q-6.76 13.46-7.22 13.46ZM3.58 13.18L3.58 14.69L3.58 14.69Q3.58 15.92 3.36 16.76L3.36 16.76L3.36 16.76Q3.15 17.59 2.74 18.11L2.74 18.11L2.74 18.11Q2.33 18.63 1.75 18.85L1.75 18.85L1.75 18.85Q1.18 19.08 0.45 19.08L0.45 19.08L0.45 19.08Q-0.27 19.08-0.85 18.85L-0.85 18.85L-0.85 18.85Q-1.43 18.63-1.84 18.11L-1.84 18.11L-1.84 18.11Q-2.25 17.59-2.47 16.76L-2.47 16.76L-2.47 16.76Q-2.70 15.92-2.70 14.69L-2.70 14.69L-2.70 13.18L-2.70 13.18Q-2.70 11.95-2.48 11.13L-2.48 11.13L-2.48 11.13Q-2.25 10.30-1.84 9.79L-1.84 9.79L-1.84 9.79Q-1.43 9.29-0.86 9.07L-0.86 9.07L-0.86 9.07Q-0.28 8.85 0.44 8.85L0.44 8.85L0.44 8.85Q1.16 8.85 1.74 9.07L1.74 9.07L1.74 9.07Q2.33 9.29 2.74 9.79L2.74 9.79L2.74 9.79Q3.15 10.30 3.36 11.13L3.36 11.13L3.36 11.13Q3.58 11.95 3.58 13.18L3.58 13.18M2.32 14.89L2.32 12.97L2.32 12.97Q2.32 12.12 2.20 11.54L2.20 11.54L2.20 11.54Q2.08 10.95 1.84 10.58L1.84 10.58L1.84 10.58Q1.60 10.22 1.25 10.05L1.25 10.05L1.25 10.05Q0.90 9.89 0.44 9.89L0.44 9.89L0.44 9.89Q-0.01 9.89-0.36 10.05L-0.36 10.05L-0.36 10.05Q-0.72 10.22-0.95 10.58L-0.95 10.58L-0.95 10.58Q-1.19 10.95-1.31 11.54L-1.31 11.54L-1.31 11.54Q-1.43 12.12-1.43 12.97L-1.43 12.97L-1.43 14.89L-1.43 14.89Q-1.43 15.73-1.31 16.33L-1.31 16.33L-1.31 16.33Q-1.19 16.92-0.95 17.31L-0.95 17.31L-0.95 17.31Q-0.70 17.69-0.35 17.87L-0.35 17.87L-0.35 17.87Q0.00 18.04 0.45 18.04L0.45 18.04L0.45 18.04Q0.92 18.04 1.27 17.87L1.27 17.87L1.27 17.87Q1.61 17.69 1.85 17.31L1.85 17.31L1.85 17.31Q2.09 16.92 2.20 16.33L2.20 16.33L2.20 16.33Q2.32 15.73 2.32 14.89L2.32 14.89ZM11.44 13.18L11.44 14.69L11.44 14.69Q11.44 15.92 11.23 16.76L11.23 16.76L11.23 16.76Q11.01 17.59 10.60 18.11L10.60 18.11L10.60 18.11Q10.19 18.63 9.62 18.85L9.62 18.85L9.62 18.85Q9.04 19.08 8.31 19.08L8.31 19.08L8.31 19.08Q7.60 19.08 7.01 18.85L7.01 18.85L7.01 18.85Q6.43 18.63 6.02 18.11L6.02 18.11L6.02 18.11Q5.61 17.59 5.39 16.76L5.39 16.76L5.39 16.76Q5.16 15.92 5.16 14.69L5.16 14.69L5.16 13.18L5.16 13.18Q5.16 11.95 5.38 11.13L5.38 11.13L5.38 11.13Q5.61 10.30 6.02 9.79L6.02 9.79L6.02 9.79Q6.43 9.29 7.00 9.07L7.00 9.07L7.00 9.07Q7.58 8.85 8.30 8.85L8.30 8.85L8.30 8.85Q9.02 8.85 9.61 9.07L9.61 9.07L9.61 9.07Q10.19 9.29 10.60 9.79L10.60 9.79L10.60 9.79Q11.01 10.30 11.23 11.13L11.23 11.13L11.23 11.13Q11.44 11.95 11.44 13.18L11.44 13.18M10.18 14.89L10.18 12.97L10.18 12.97Q10.18 12.12 10.06 11.54L10.06 11.54L10.06 11.54Q9.94 10.95 9.70 10.58L9.70 10.58L9.70 10.58Q9.46 10.22 9.11 10.05L9.11 10.05L9.11 10.05Q8.76 9.89 8.30 9.89L8.30 9.89L8.30 9.89Q7.85 9.89 7.50 10.05L7.50 10.05L7.50 10.05Q7.14 10.22 6.91 10.58L6.91 10.58L6.91 10.58Q6.67 10.95 6.55 11.54L6.55 11.54L6.55 11.54Q6.43 12.12 6.43 12.97L6.43 12.97L6.43 14.89L6.43 14.89Q6.43 15.73 6.55 16.33L6.55 16.33L6.55 16.33Q6.67 16.92 6.92 17.31L6.92 17.31L6.92 17.31Q7.16 17.69 7.51 17.87L7.51 17.87L7.51 17.87Q7.86 18.04 8.31 18.04L8.31 18.04L8.31 18.04Q8.78 18.04 9.13 17.87L9.13 17.87L9.13 17.87Q9.48 17.69 9.71 17.31L9.71 17.31L9.71 17.31Q9.95 16.92 10.06 16.33L10.06 16.33L10.06 16.33Q10.18 15.73 10.18 14.89L10.18 14.89Z" fill="#000" stroke="none"></path></g></g><g transform="translate(204.8,0)"><line stroke="#000" x1="0.5" x2="0.5" y2="6"></line><g><path d="M-4.42 11.58L-4.42 11.58L-4.42 11.58Q-4.42 12.33-4.81 12.91L-4.81 12.91L-4.81 12.91Q-5.20 13.49-5.87 13.82L-5.87 13.82L-5.87 13.82Q-5.49 13.98-5.18 14.23L-5.18 14.23L-5.18 14.23Q-4.87 14.48-4.64 14.79L-4.64 14.79L-4.64 14.79Q-4.42 15.10-4.30 15.47L-4.30 15.47L-4.30 15.47Q-4.18 15.84-4.18 16.25L-4.18 16.25L-4.18 16.25Q-4.18 16.94-4.43 17.46L-4.43 17.46L-4.43 17.46Q-4.67 17.99-5.10 18.35L-5.10 18.35L-5.10 18.35Q-5.52 18.71-6.10 18.89L-6.10 18.89L-6.10 18.89Q-6.68 19.08-7.35 19.08L-7.35 19.08L-7.35 19.08Q-8.02 19.08-8.60 18.89L-8.60 18.89L-8.60 18.89Q-9.18 18.71-9.60 18.35L-9.60 18.35L-9.60 18.35Q-10.03 17.99-10.27 17.46L-10.27 17.46L-10.27 17.46Q-10.51 16.94-10.51 16.25L-10.51 16.25L-10.51 16.25Q-10.51 15.84-10.40 15.47L-10.40 15.47L-10.40 15.47Q-10.28 15.10-10.06 14.78L-10.06 14.78L-10.06 14.78Q-9.85 14.47-9.54 14.22L-9.54 14.22L-9.54 14.22Q-9.23 13.98-8.85 13.81L-8.85 13.81L-8.85 13.81Q-9.51 13.48-9.90 12.90L-9.90 12.90L-9.90 12.90Q-10.28 12.32-10.28 11.58L-10.28 11.58L-10.28 11.58Q-10.28 10.94-10.06 10.43L-10.06 10.43L-10.06 10.43Q-9.84 9.92-9.45 9.57L-9.45 9.57L-9.45 9.57Q-9.06 9.22-8.52 9.03L-8.52 9.03L-8.52 9.03Q-7.98 8.85-7.35 8.85L-7.35 8.85L-7.35 8.85Q-6.71 8.85-6.18 9.03L-6.18 9.03L-6.18 9.03Q-5.64 9.22-5.25 9.57L-5.25 9.57L-5.25 9.57Q-4.85 9.92-4.63 10.43L-4.63 10.43L-4.63 10.43Q-4.42 10.94-4.42 11.58M-5.45 16.23L-5.45 16.23L-5.45 16.23Q-5.45 15.81-5.59 15.46L-5.59 15.46L-5.59 15.46Q-5.73 15.11-5.98 14.86L-5.98 14.86L-5.98 14.86Q-6.23 14.61-6.59 14.48L-6.59 14.48L-6.59 14.48Q-6.94 14.34-7.36 14.34L-7.36 14.34L-7.36 14.34Q-7.79 14.34-8.14 14.48L-8.14 14.48L-8.14 14.48Q-8.49 14.61-8.74 14.86L-8.74 14.86L-8.74 14.86Q-8.98 15.11-9.11 15.46L-9.11 15.46L-9.11 15.46Q-9.25 15.81-9.25 16.23L-9.25 16.23L-9.25 16.23Q-9.25 16.66-9.12 16.99L-9.12 16.99L-9.12 16.99Q-8.99 17.33-8.74 17.56L-8.74 17.56L-8.74 17.56Q-8.50 17.80-8.14 17.92L-8.14 17.92L-8.14 17.92Q-7.79 18.04-7.35 18.04L-7.35 18.04L-7.35 18.04Q-6.91 18.04-6.56 17.92L-6.56 17.92L-6.56 17.92Q-6.21 17.80-5.96 17.56L-5.96 17.56L-5.96 17.56Q-5.71 17.33-5.58 16.99L-5.58 16.99L-5.58 16.99Q-5.45 16.66-5.45 16.23M-5.68 11.61L-5.68 11.61L-5.68 11.61Q-5.68 11.24-5.80 10.92L-5.80 10.92L-5.80 10.92Q-5.92 10.61-6.14 10.38L-6.14 10.38L-6.14 10.38Q-6.36 10.15-6.67 10.02L-6.67 10.02L-6.67 10.02Q-6.98 9.89-7.35 9.89L-7.35 9.89L-7.35 9.89Q-7.72 9.89-8.02 10.01L-8.02 10.01L-8.02 10.01Q-8.33 10.13-8.55 10.35L-8.55 10.35L-8.55 10.35Q-8.78 10.57-8.90 10.89L-8.90 10.89L-8.90 10.89Q-9.02 11.21-9.02 11.61L-9.02 11.61L-9.02 11.61Q-9.02 11.99-8.90 12.30L-8.90 12.30L-8.90 12.30Q-8.78 12.62-8.56 12.84L-8.56 12.84L-8.56 12.84Q-8.34 13.06-8.03 13.18L-8.03 13.18L-8.03 13.18Q-7.72 13.30-7.35 13.30L-7.35 13.30L-7.35 13.30Q-6.97 13.30-6.66 13.18L-6.66 13.18L-6.66 13.18Q-6.36 13.06-6.14 12.84L-6.14 12.84L-6.14 12.84Q-5.92 12.62-5.80 12.30L-5.80 12.30L-5.80 12.30Q-5.68 11.99-5.68 11.61ZM3.65 13.18L3.65 14.69L3.65 14.69Q3.65 15.92 3.43 16.76L3.43 16.76L3.43 16.76Q3.21 17.59 2.81 18.11L2.81 18.11L2.81 18.11Q2.40 18.63 1.82 18.85L1.82 18.85L1.82 18.85Q1.25 19.08 0.52 19.08L0.52 19.08L0.52 19.08Q-0.20 19.08-0.78 18.85L-0.78 18.85L-0.78 18.85Q-1.36 18.63-1.77 18.11L-1.77 18.11L-1.77 18.11Q-2.18 17.59-2.41 16.76L-2.41 16.76L-2.41 16.76Q-2.63 15.92-2.63 14.69L-2.63 14.69L-2.63 13.18L-2.63 13.18Q-2.63 11.95-2.41 11.13L-2.41 11.13L-2.41 11.13Q-2.19 10.30-1.78 9.79L-1.78 9.79L-1.78 9.79Q-1.37 9.29-0.79 9.07L-0.79 9.07L-0.79 9.07Q-0.21 8.85 0.51 8.85L0.51 8.85L0.51 8.85Q1.23 8.85 1.81 9.07L1.81 9.07L1.81 9.07Q2.39 9.29 2.80 9.79L2.80 9.79L2.80 9.79Q3.21 10.30 3.43 11.13L3.43 11.13L3.43 11.13Q3.65 11.95 3.65 13.18L3.65 13.18M2.39 14.89L2.39 12.97L2.39 12.97Q2.39 12.12 2.27 11.54L2.27 11.54L2.27 11.54Q2.15 10.95 1.91 10.58L1.91 10.58L1.91 10.58Q1.67 10.22 1.32 10.05L1.32 10.05L1.32 10.05Q0.96 9.89 0.51 9.89L0.51 9.89L0.51 9.89Q0.06 9.89-0.30 10.05L-0.30 10.05L-0.30 10.05Q-0.65 10.22-0.88 10.58L-0.88 10.58L-0.88 10.58Q-1.12 10.95-1.24 11.54L-1.24 11.54L-1.24 11.54Q-1.37 12.12-1.37 12.97L-1.37 12.97L-1.37 14.89L-1.37 14.89Q-1.37 15.73-1.24 16.33L-1.24 16.33L-1.24 16.33Q-1.12 16.92-0.88 17.31L-0.88 17.31L-0.88 17.31Q-0.63 17.69-0.28 17.87L-0.28 17.87L-0.28 17.87Q0.07 18.04 0.52 18.04L0.52 18.04L0.52 18.04Q0.99 18.04 1.33 17.87L1.33 17.87L1.33 17.87Q1.68 17.69 1.92 17.31L1.92 17.31L1.92 17.31Q2.15 16.92 2.27 16.33L2.27 16.33L2.27 16.33Q2.39 15.73 2.39 14.89L2.39 14.89ZM11.51 13.18L11.51 14.69L11.51 14.69Q11.51 15.92 11.29 16.76L11.29 16.76L11.29 16.76Q11.08 17.59 10.67 18.11L10.67 18.11L10.67 18.11Q10.26 18.63 9.68 18.85L9.68 18.85L9.68 18.85Q9.11 19.08 8.38 19.08L8.38 19.08L8.38 19.08Q7.66 19.08 7.08 18.85L7.08 18.85L7.08 18.85Q6.50 18.63 6.09 18.11L6.09 18.11L6.09 18.11Q5.68 17.59 5.46 16.76L5.46 16.76L5.46 16.76Q5.23 15.92 5.23 14.69L5.23 14.69L5.23 13.18L5.23 13.18Q5.23 11.95 5.45 11.13L5.45 11.13L5.45 11.13Q5.67 10.30 6.08 9.79L6.08 9.79L6.08 9.79Q6.50 9.29 7.07 9.07L7.07 9.07L7.07 9.07Q7.65 8.85 8.37 8.85L8.37 8.85L8.37 8.85Q9.09 8.85 9.67 9.07L9.67 9.07L9.67 9.07Q10.25 9.29 10.67 9.79L10.67 9.79L10.67 9.79Q11.08 10.30 11.29 11.13L11.29 11.13L11.29 11.13Q11.51 11.95 11.51 13.18L11.51 13.18M10.25 14.89L10.25 12.97L10.25 12.97Q10.25 12.12 10.13 11.54L10.13 11.54L10.13 11.54Q10.01 10.95 9.77 10.58L9.77 10.58L9.77 10.58Q9.53 10.22 9.18 10.05L9.18 10.05L9.18 10.05Q8.83 9.89 8.37 9.89L8.37 9.89L8.37 9.89Q7.92 9.89 7.56 10.05L7.56 10.05L7.56 10.05Q7.21 10.22 6.98 10.58L6.98 10.58L6.98 10.58Q6.74 10.95 6.62 11.54L6.62 11.54L6.62 11.54Q6.50 12.12 6.50 12.97L6.50 12.97L6.50 14.89L6.50 14.89Q6.50 15.73 6.62 16.33L6.62 16.33L6.62 16.33Q6.74 16.92 6.98 17.31L6.98 17.31L6.98 17.31Q7.23 17.69 7.58 17.87L7.58 17.87L7.58 17.87Q7.93 18.04 8.38 18.04L8.38 18.04L8.38 18.04Q8.85 18.04 9.20 17.87L9.20 17.87L9.20 17.87Q9.54 17.69 9.78 17.31L9.78 17.31L9.78 17.31Q10.02 16.92 10.13 16.33L10.13 16.33L10.13 16.33Q10.25 15.73 10.25 14.89L10.25 14.89Z" fill="#000" stroke="none"></path></g></g><g transform="translate(256.0,0)"><line stroke="#000" x1="0.5" x2="0.5" y2="6"></line><g><path d="M-10.42 8.94L-10.42 18.94L-11.70 18.94L-11.70 10.51L-14.25 11.45L-14.25 10.30L-10.62 8.94L-10.42 8.94ZM-0.48 13.18L-0.48 14.69L-0.48 14.69Q-0.48 15.92-0.70 16.76L-0.70 16.76L-0.70 16.76Q-0.92 17.59-1.32 18.11L-1.32 18.11L-1.32 18.11Q-1.73 18.63-2.31 18.85L-2.31 18.85L-2.31 18.85Q-2.88 19.08-3.61 19.08L-3.61 19.08L-3.61 19.08Q-4.33 19.08-4.91 18.85L-4.91 18.85L-4.91 18.85Q-5.49 18.63-5.90 18.11L-5.90 18.11L-5.90 18.11Q-6.31 17.59-6.53 16.76L-6.53 16.76L-6.53 16.76Q-6.76 15.92-6.76 14.69L-6.76 14.69L-6.76 13.18L-6.76 13.18Q-6.76 11.95-6.54 11.13L-6.54 11.13L-6.54 11.13Q-6.32 10.30-5.91 9.79L-5.91 9.79L-5.91 9.79Q-5.50 9.29-4.92 9.07L-4.92 9.07L-4.92 9.07Q-4.34 8.85-3.62 8.85L-3.62 8.85L-3.62 8.85Q-2.90 8.85-2.32 9.07L-2.32 9.07L-2.32 9.07Q-1.74 9.29-1.33 9.79L-1.33 9.79L-1.33 9.79Q-0.92 10.30-0.70 11.13L-0.70 11.13L-0.70 11.13Q-0.48 11.95-0.48 13.18L-0.48 13.18M-1.74 14.89L-1.74 12.97L-1.74 12.97Q-1.74 12.12-1.86 11.54L-1.86 11.54L-1.86 11.54Q-1.98 10.95-2.22 10.58L-2.22 10.58L-2.22 10.58Q-2.46 10.22-2.81 10.05L-2.81 10.05L-2.81 10.05Q-3.16 9.89-3.62 9.89L-3.62 9.89L-3.62 9.89Q-4.07 9.89-4.43 10.05L-4.43 10.05L-4.43 10.05Q-4.78 10.22-5.01 10.58L-5.01 10.58L-5.01 10.58Q-5.25 10.95-5.37 11.54L-5.37 11.54L-5.37 11.54Q-5.50 12.12-5.50 12.97L-5.50 12.97L-5.50 14.89L-5.50 14.89Q-5.50 15.73-5.37 16.33L-5.37 16.33L-5.37 16.33Q-5.25 16.92-5.01 17.31L-5.01 17.31L-5.01 17.31Q-4.76 17.69-4.41 17.87L-4.41 17.87L-4.41 17.87Q-4.06 18.04-3.61 18.04L-3.61 18.04L-3.61 18.04Q-3.14 18.04-2.79 17.87L-2.79 17.87L-2.79 17.87Q-2.45 17.69-2.21 17.31L-2.21 17.31L-2.21 17.31Q-1.97 16.92-1.86 16.33L-1.86 16.33L-1.86 16.33Q-1.74 15.73-1.74 14.89L-1.74 14.89ZM7.38 13.18L7.38 14.69L7.38 14.69Q7.38 15.92 7.17 16.76L7.17 16.76L7.17 16.76Q6.95 17.59 6.54 18.11L6.54 18.11L6.54 18.11Q6.13 18.63 5.56 18.85L5.56 18.85L5.56 18.85Q4.98 19.08 4.25 19.08L4.25 19.08L4.25 19.08Q3.54 19.08 2.95 18.85L2.95 18.85L2.95 18.85Q2.37 18.63 1.96 18.11L1.96 18.11L1.96 18.11Q1.55 17.59 1.33 16.76L1.33 16.76L1.33 16.76Q1.10 15.92 1.10 14.69L1.10 14.69L1.10 13.18L1.10 13.18Q1.10 11.95 1.32 11.13L1.32 11.13L1.32 11.13Q1.55 10.30 1.96 9.79L1.96 9.79L1.96 9.79Q2.37 9.29 2.94 9.07L2.94 9.07L2.94 9.07Q3.52 8.85 4.24 8.85L4.24 8.85L4.24 8.85Q4.96 8.85 5.54 9.07L5.54 9.07L5.54 9.07Q6.13 9.29 6.54 9.79L6.54 9.79L6.54 9.79Q6.95 10.30 7.17 11.13L7.17 11.13L7.17 11.13Q7.38 11.95 7.38 13.18L7.38 13.18M6.12 14.89L6.12 12.97L6.12 12.97Q6.12 12.12 6.00 11.54L6.00 11.54L6.00 11.54Q5.88 10.95 5.64 10.58L5.64 10.58L5.64 10.58Q5.40 10.22 5.05 10.05L5.05 10.05L5.05 10.05Q4.70 9.89 4.24 9.89L4.24 9.89L4.24 9.89Q3.79 9.89 3.44 10.05L3.44 10.05L3.44 10.05Q3.08 10.22 2.85 10.58L2.85 10.58L2.85 10.58Q2.61 10.95 2.49 11.54L2.49 11.54L2.49 11.54Q2.37 12.12 2.37 12.97L2.37 12.97L2.37 14.89L2.37 14.89Q2.37 15.73 2.49 16.33L2.49 16.33L2.49 16.33Q2.61 16.92 2.85 17.31L2.85 17.31L2.85 17.31Q3.10 17.69 3.45 17.87L3.45 17.87L3.45 17.87Q3.80 18.04 4.25 18.04L4.25 18.04L4.25 18.04Q4.72 18.04 5.07 17.87L5.07 17.87L5.07 17.87Q5.42 17.69 5.65 17.31L5.65 17.31L5.65 17.31Q5.89 16.92 6.00 16.33L6.00 16.33L6.00 16.33Q6.12 15.73 6.12 14.89L6.12 14.89ZM15.25 13.18L15.25 14.69L15.25 14.69Q15.25 15.92 15.03 16.76L15.03 16.76L15.03 16.76Q14.81 17.59 14.40 18.11L14.40 18.11L14.40 18.11Q13.99 18.63 13.42 18.85L13.42 18.85L13.42 18.85Q12.84 19.08 12.11 19.08L12.11 19.08L12.11 19.08Q11.40 19.08 10.82 18.85L10.82 18.85L10.82 18.85Q10.23 18.63 9.82 18.11L9.82 18.11L9.82 18.11Q9.41 17.59 9.19 16.76L9.19 16.76L9.19 16.76Q8.96 15.92 8.96 14.69L8.96 14.69L8.96 13.18L8.96 13.18Q8.96 11.95 9.19 11.13L9.19 11.13L9.19 11.13Q9.41 10.30 9.82 9.79L9.82 9.79L9.82 9.79Q10.23 9.29 10.81 9.07L10.81 9.07L10.81 9.07Q11.38 8.85 12.10 8.85L12.10 8.85L12.10 8.85Q12.83 8.85 13.41 9.07L13.41 9.07L13.41 9.07Q13.99 9.29 14.40 9.79L14.40 9.79L14.40 9.79Q14.81 10.30 15.03 11.13L15.03 11.13L15.03 11.13Q15.25 11.95 15.25 13.18L15.25 13.18M13.98 14.89L13.98 12.97L13.98 12.97Q13.98 12.12 13.86 11.54L13.86 11.54L13.86 11.54Q13.74 10.95 13.50 10.58L13.50 10.58L13.50 10.58Q13.26 10.22 12.91 10.05L12.91 10.05L12.91 10.05Q12.56 9.89 12.10 9.89L12.10 9.89L12.10 9.89Q11.65 9.89 11.30 10.05L11.30 10.05L11.30 10.05Q10.95 10.22 10.71 10.58L10.71 10.58L10.71 10.58Q10.47 10.95 10.35 11.54L10.35 11.54L10.35 11.54Q10.23 12.12 10.23 12.97L10.23 12.97L10.23 14.89L10.23 14.89Q10.23 15.73 10.35 16.33L10.35 16.33L10.35 16.33Q10.47 16.92 10.72 17.31L10.72 17.31L10.72 17.31Q10.96 17.69 11.31 17.87L11.31 17.87L11.31 17.87Q11.66 18.04 12.11 18.04L12.11 18.04L12.11 18.04Q12.58 18.04 12.93 17.87L12.93 17.87L12.93 17.87Q13.28 17.69 13.51 17.31L13.51 17.31L13.51 17.31Q13.75 16.92 13.86 16.33L13.86 16.33L13.86 16.33Q13.98 15.73 13.98 14.89L13.98 14.89Z" fill="#000" stroke="none"></path></g></g></g></g></g></g></svg>